<svg width="1853" height="185" viewBox="0 0 1853 185" fill="none" xmlns="http://www.w3.org/2000/svg">
<path d="M38.717 125.67H31.637V54.8699L32.168 31.6829L10.397 120.183L9.866 125.67H3.317V1.76991H10.397V72.5699L9.866 95.7569L31.637 7.25692L32.168 1.76991H38.717V125.67ZM84.7854 125.67H77.7054V67.0829H56.4654V125.67H49.3854V1.76991H56.4654V60.3569H77.7054V1.76991H84.7854V125.67ZM125.544 125.67H118.464V102.483H109.614C97.2238 102.483 91.9138 94.8719 91.9138 81.2429V31.6829C91.9138 18.0539 97.2238 10.6199 109.614 10.6199H118.464V1.76991H125.544V10.6199H134.394C146.784 10.6199 152.094 18.0539 152.094 31.6829V81.2429C152.094 94.8719 146.784 102.483 134.394 102.483H125.544V125.67ZM145.014 81.2429V31.6829C145.014 22.4789 141.828 17.3459 134.394 17.3459H125.544V95.7569H134.394C141.828 95.7569 145.014 90.4469 145.014 81.2429ZM118.464 95.7569V17.3459H109.614C102.18 17.3459 98.9938 22.4789 98.9938 31.6829V81.2429C98.9938 90.4469 102.18 95.7569 109.614 95.7569H118.464ZM158.268 107.97V19.2929C158.268 6.72591 163.578 -8.4877e-05 175.968 -8.4877e-05C188.358 -8.4877e-05 193.668 6.72591 193.668 19.2929V107.97C193.668 120.537 188.358 127.44 175.968 127.44C163.578 127.44 158.268 120.537 158.268 107.97ZM186.588 107.97V19.2929C186.588 11.1509 183.402 6.72591 175.968 6.72591C168.534 6.72591 165.348 11.1509 165.348 19.2929V107.97C165.348 116.112 168.534 120.714 175.968 120.714C183.402 120.714 186.588 116.112 186.588 107.97ZM210.4 125.67H203.32V1.76991H221.02C233.41 1.76991 238.72 9.20391 238.72 22.8329V59.6489C238.72 73.2779 233.41 80.8889 221.02 80.8889H210.4V125.67ZM231.64 59.6489V22.8329C231.64 13.6289 228.454 8.49591 221.02 8.49591H210.4V74.1629H221.02C228.454 74.1629 231.64 68.8529 231.64 59.6489ZM296.381 1.76991V125.67H289.301V45.8429L290.186 22.6559L274.61 102.483H267.53L251.954 22.6559L252.839 45.8429V125.67H245.759V1.76991H252.839L265.76 58.7639L271.07 93.1019L276.38 58.7639L289.301 1.76991H296.381ZM343.854 125.67H336.597L333.234 102.483H310.401L307.215 125.67H299.958L318.366 1.59292H325.446L343.854 125.67ZM332.349 95.7569L327.216 59.8259L321.906 18.2309L316.596 59.8259L311.463 95.7569H332.349ZM388.112 140.007H381.917V125.67H347.402V1.76991H354.482V118.767H375.722V1.76991H382.802V118.767H388.112V140.007ZM428.871 125.67H421.791V54.8699L422.322 31.6829L400.551 120.183L400.02 125.67H393.471V1.76991H400.551V72.5699L400.02 95.7569L421.791 7.25692L422.322 1.76991H428.871V125.67ZM472.107 1.76991V125.67H465.027V73.9859H456.885L441.486 125.67H434.229L449.628 73.4549C441.309 71.3309 437.592 64.2509 437.592 52.7459V22.8329C437.592 9.20391 442.902 1.76991 455.292 1.76991H472.107ZM455.292 67.2599H465.027V8.49591H455.292C447.858 8.49591 444.672 13.6289 444.672 22.8329V52.7459C444.672 61.9499 447.858 67.2599 455.292 67.2599ZM548.228 140.007H542.033V125.67H506.633V140.007H500.438V118.767C506.633 118.767 509.111 101.421 509.642 87.0839L512.828 1.76991H542.918V118.767H548.228V140.007ZM535.838 118.767V8.67292H519.554L516.722 87.0839C516.191 98.9429 514.775 112.749 509.111 118.767H535.838ZM591.246 125.67H584.166V8.67292H567.882L564.696 100.89C564.165 116.643 559.386 125.67 546.996 125.67V118.944C554.43 118.944 557.262 112.218 557.616 100.89L561.156 1.76991H591.246V125.67ZM634.428 1.76991V125.67H627.348V73.9859H619.206L603.807 125.67H596.55L611.949 73.4549C603.63 71.3309 599.913 64.2509 599.913 52.7459V22.8329C599.913 9.20391 605.223 1.76991 617.613 1.76991H634.428ZM617.613 67.2599H627.348V8.49591H617.613C610.179 8.49591 606.993 13.6289 606.993 22.8329V52.7459C606.993 61.9499 610.179 67.2599 617.613 67.2599ZM695.505 107.97V90.2699H702.585V107.97C702.585 120.537 697.275 127.44 684.885 127.44C672.495 127.44 667.185 120.537 667.185 107.97V19.2929C667.185 6.72591 672.495 -8.4877e-05 684.885 -8.4877e-05C697.275 -8.4877e-05 702.585 6.72591 702.585 19.2929V37.1699H695.505V19.2929C695.505 11.1509 692.319 6.72591 684.885 6.72591C677.451 6.72591 674.265 11.1509 674.265 19.2929V107.97C674.265 116.112 677.451 120.714 684.885 120.714C692.319 120.714 695.505 116.112 695.505 107.97ZM746.772 125.67H739.692V8.67292H718.452V125.67H711.372V1.76991H746.772V125.67ZM786.646 125.67H757.441V1.76991H786.646V8.67292H764.521V60.3569H783.106V67.0829H764.521V118.767H786.646V125.67ZM833.502 140.007H827.307V125.67H792.792V1.76991H799.872V118.767H821.112V1.76991H828.192V118.767H833.502V140.007ZM874.261 125.67H867.181V54.8699L867.712 31.6829L845.941 120.183L845.41 125.67H838.861V1.76991H845.941V72.5699L845.41 95.7569L867.181 7.25692L867.712 1.76991H874.261V125.67ZM921.745 125.67H914.488L911.125 102.483H888.292L885.106 125.67H877.849L896.257 1.59292H903.337L921.745 125.67ZM910.24 95.7569L905.107 59.8259L899.797 18.2309L894.487 59.8259L889.354 95.7569H910.24ZM962.994 125.67H955.914V8.67292H939.63L936.444 100.89C935.913 116.643 931.134 125.67 918.744 125.67V118.944C926.178 118.944 929.01 112.218 929.364 100.89L932.904 1.76991H962.994V125.67ZM1009.01 125.67H1001.93V54.8699L1002.46 31.6829L980.689 120.183L980.158 125.67H973.609V1.76991H980.689V72.5699L980.158 95.7569L1001.93 7.25692L1002.46 1.76991H1009.01V125.67ZM1047.11 107.97V90.2699H1054.19V107.97C1054.19 120.537 1048.88 127.44 1036.49 127.44C1024.1 127.44 1018.79 120.537 1018.79 107.97V19.2929C1018.79 6.72591 1024.1 -8.4877e-05 1036.49 -8.4877e-05C1048.88 -8.4877e-05 1054.19 6.72591 1054.19 19.2929V37.1699H1047.11V19.2929C1047.11 11.1509 1043.93 6.72591 1036.49 6.72591C1029.06 6.72591 1025.87 11.1509 1025.87 19.2929V107.97C1025.87 116.112 1029.06 120.714 1036.49 120.714C1043.93 120.714 1047.11 116.112 1047.11 107.97ZM1079.8 125.67H1072.72V8.67292H1056.79V1.76991H1095.73V8.67292H1079.8V125.67ZM1099.35 107.97V19.2929C1099.35 6.72591 1104.66 -8.4877e-05 1117.05 -8.4877e-05C1129.44 -8.4877e-05 1134.75 6.72591 1134.75 19.2929V107.97C1134.75 120.537 1129.44 127.44 1117.05 127.44C1104.66 127.44 1099.35 120.537 1099.35 107.97ZM1127.67 107.97V19.2929C1127.67 11.1509 1124.48 6.72591 1117.05 6.72591C1109.61 6.72591 1106.43 11.1509 1106.43 19.2929V107.97C1106.43 116.112 1109.61 120.714 1117.05 120.714C1124.48 120.714 1127.67 116.112 1127.67 107.97ZM1162.1 125.67H1144.4V1.76991H1162.1C1173.25 1.76991 1178.03 7.96492 1178.03 19.2929V49.3829C1178.03 56.4629 1175.91 61.2419 1170.95 63.7199C1177.15 66.1979 1179.8 71.6849 1179.8 79.6499V106.2C1179.8 118.767 1174.49 125.67 1162.1 125.67ZM1172.72 106.2V79.6499C1172.72 71.5079 1169.53 67.0829 1162.1 67.0829H1151.48V118.944H1162.1C1169.53 118.944 1172.72 114.342 1172.72 106.2ZM1170.95 49.3829V19.2929C1170.95 12.2129 1168.3 8.49591 1162.1 8.49591H1151.48V60.3569H1162.1C1168.3 60.3569 1170.95 56.4629 1170.95 49.3829ZM1238.71 107.97V81.4199C1238.71 72.2159 1235.53 67.0829 1228.09 67.0829H1219.24V60.3569H1228.09C1235.53 60.3569 1238.71 55.2239 1238.71 46.0199V19.2929C1238.71 11.1509 1235.53 6.72591 1228.09 6.72591C1220.66 6.72591 1217.47 11.1509 1217.47 19.2929V37.1699H1210.39V19.2929C1210.39 6.72591 1215.7 -8.4877e-05 1228.09 -8.4877e-05C1240.48 -8.4877e-05 1245.79 6.72591 1245.79 19.2929V46.0199C1245.79 55.0469 1242.96 61.0649 1236.94 63.7199C1242.96 66.3749 1245.79 72.3929 1245.79 81.4199V107.97C1245.79 120.537 1240.48 127.44 1228.09 127.44C1215.7 127.44 1210.39 120.537 1210.39 107.97V90.2699H1217.47V107.97C1217.47 116.112 1220.66 120.714 1228.09 120.714C1235.53 120.714 1238.71 116.112 1238.71 107.97ZM1297.77 140.007H1291.58V125.67H1256.18V140.007H1249.98V118.767C1256.18 118.767 1258.66 101.421 1259.19 87.0839L1262.37 1.76991H1292.46V118.767H1297.77V140.007ZM1285.38 118.767V8.67292H1269.1L1266.27 87.0839C1265.74 98.9429 1264.32 112.749 1258.66 118.767H1285.38ZM1310.17 125.67H1303.09V1.76991H1320.79C1333.18 1.76991 1338.49 9.20391 1338.49 22.8329V59.6489C1338.49 73.2779 1333.18 80.8889 1320.79 80.8889H1310.17V125.67ZM1331.41 59.6489V22.8329C1331.41 13.6289 1328.23 8.49591 1320.79 8.49591H1310.17V74.1629H1320.79C1328.23 74.1629 1331.41 68.8529 1331.41 59.6489ZM1382.35 125.67H1375.09L1371.73 102.483H1348.89L1345.71 125.67H1338.45L1356.86 1.59292H1363.94L1382.35 125.67ZM1370.84 95.7569L1365.71 59.8259L1360.4 18.2309L1355.09 59.8259L1349.96 95.7569H1370.84ZM1403.59 125.67H1385.89V1.76991H1403.59C1414.75 1.76991 1419.52 7.96492 1419.52 19.2929V49.3829C1419.52 56.4629 1417.4 61.2419 1412.44 63.7199C1418.64 66.1979 1421.29 71.6849 1421.29 79.6499V106.2C1421.29 118.767 1415.98 125.67 1403.59 125.67ZM1414.21 106.2V79.6499C1414.21 71.5079 1411.03 67.0829 1403.59 67.0829H1392.97V118.944H1403.59C1411.03 118.944 1414.21 114.342 1414.21 106.2ZM1412.44 49.3829V19.2929C1412.44 12.2129 1409.79 8.49591 1403.59 8.49591H1392.97V60.3569H1403.59C1409.79 60.3569 1412.44 56.4629 1412.44 49.3829ZM1429.7 107.97V19.2929C1429.7 6.72591 1435.01 -8.4877e-05 1447.4 -8.4877e-05C1459.79 -8.4877e-05 1465.1 6.72591 1465.1 19.2929V107.97C1465.1 120.537 1459.79 127.44 1447.4 127.44C1435.01 127.44 1429.7 120.537 1429.7 107.97ZM1458.02 107.97V19.2929C1458.02 11.1509 1454.83 6.72591 1447.4 6.72591C1439.96 6.72591 1436.78 11.1509 1436.78 19.2929V107.97C1436.78 116.112 1439.96 120.714 1447.4 120.714C1454.83 120.714 1458.02 116.112 1458.02 107.97ZM1473.86 107.97V19.2929C1473.86 6.72591 1479.17 -8.4877e-05 1491.56 -8.4877e-05C1503.95 -8.4877e-05 1509.26 6.72591 1509.26 19.2929V107.97C1509.26 120.537 1503.95 127.44 1491.56 127.44C1479.17 127.44 1473.86 120.537 1473.86 107.97ZM1502.18 107.97V19.2929C1502.18 11.1509 1499 6.72591 1491.56 6.72591C1484.13 6.72591 1480.94 11.1509 1480.94 19.2929V107.97C1480.94 116.112 1484.13 120.714 1491.56 120.714C1499 120.714 1502.18 116.112 1502.18 107.97ZM1537.85 62.6579L1556.61 125.67H1549.36L1538.74 90.2699L1534.14 71.3309L1529.53 90.2699L1519.09 125.67H1511.83L1530.6 62.6579L1512.54 1.76991H1519.8L1530.24 37.1699L1534.14 53.9849L1538.03 37.1699L1548.65 1.76991H1555.91L1537.85 62.6579ZM1567.22 125.67H1560.14V1.76991H1577.84C1590.23 1.76991 1595.54 9.20391 1595.54 22.8329V59.6489C1595.54 73.2779 1590.23 80.8889 1577.84 80.8889H1567.22V125.67ZM1588.46 59.6489V22.8329C1588.46 13.6289 1585.28 8.49591 1577.84 8.49591H1567.22V74.1629H1577.84C1585.28 74.1629 1588.46 68.8529 1588.46 59.6489ZM1639.4 125.67H1632.14L1628.78 102.483H1605.94L1602.76 125.67H1595.5L1613.91 1.59292H1620.99L1639.4 125.67ZM1627.89 95.7569L1622.76 59.8259L1617.45 18.2309L1612.14 59.8259L1607.01 95.7569H1627.89ZM1678.35 125.67H1671.27V67.0829H1650.03V125.67H1642.95V1.76991H1650.03V60.3569H1671.27V1.76991H1678.35V125.67ZM1718.22 125.67H1689.01V1.76991H1718.22V8.67292H1696.09V60.3569H1714.68V67.0829H1696.09V118.767H1718.22V125.67ZM1759.77 125.67H1752.69V67.0829H1731.45V125.67H1724.37V1.76991H1731.45V60.3569H1752.69V1.76991H1759.77V125.67ZM1805.83 125.67H1798.75V54.8699L1799.28 31.6829L1777.51 120.183L1776.98 125.67H1770.43V1.76991H1777.51V72.5699L1776.98 95.7569L1798.75 7.25692L1799.28 1.76991H1805.83V125.67ZM1849.07 1.76991V125.67H1841.99V73.9859H1833.85L1818.45 125.67H1811.19L1826.59 73.4549C1818.27 71.3309 1814.56 64.2509 1814.56 52.7459V22.8329C1814.56 9.20391 1819.87 1.76991 1832.26 1.76991H1849.07ZM1832.26 67.2599H1841.99V8.49591H1832.26C1824.82 8.49591 1821.64 13.6289 1821.64 22.8329V52.7459C1821.64 61.9499 1824.82 67.2599 1832.26 67.2599Z" fill="white" fill-opacity="0.5"/>
<path d="M3.17696 171.978V153.131H10.2309C11.8283 153.131 13.2014 153.391 14.3502 153.912C15.4989 154.415 16.3784 155.15 16.9887 156.12C17.6169 157.071 17.931 158.229 17.931 159.593C17.931 160.921 17.6169 162.07 16.9887 163.039C16.3784 163.99 15.4989 164.726 14.3502 165.247C13.2014 165.767 11.8283 166.027 10.2309 166.027H4.28082L5.16929 165.085V171.978H3.17696ZM5.16929 165.247L4.28082 164.277H10.177C12.0617 164.277 13.4886 163.874 14.4579 163.066C15.445 162.24 15.9386 161.083 15.9386 159.593C15.9386 158.085 15.445 156.918 14.4579 156.093C13.4886 155.267 12.0617 154.854 10.177 154.854H4.28082L5.16929 153.912V165.247ZM27.5235 172.112C26.0517 172.112 24.7593 171.807 23.6465 171.197C22.5337 170.569 21.6632 169.716 21.0349 168.639C20.4067 167.544 20.0926 166.297 20.0926 164.897C20.0926 163.497 20.3888 162.258 20.9811 161.181C21.5914 160.104 22.417 159.261 23.458 158.65C24.517 158.022 25.7017 157.708 27.0119 157.708C28.3402 157.708 29.5158 158.013 30.5389 158.624C31.5799 159.216 32.3966 160.059 32.9889 161.154C33.5812 162.231 33.8774 163.479 33.8774 164.897C33.8774 164.986 33.8684 165.085 33.8505 165.193C33.8505 165.283 33.8505 165.381 33.8505 165.489H21.5465V164.062H32.8274L32.0735 164.627C32.0735 163.604 31.8492 162.698 31.4004 161.908C30.9697 161.1 30.3774 160.472 29.6235 160.024C28.8696 159.575 27.9991 159.35 27.0119 159.35C26.0427 159.35 25.1722 159.575 24.4004 160.024C23.6286 160.472 23.0273 161.1 22.5965 161.908C22.1657 162.716 21.9503 163.64 21.9503 164.681V164.977C21.9503 166.054 22.1837 167.006 22.6503 167.831C23.135 168.639 23.7991 169.276 24.6427 169.743C25.5042 170.192 26.4824 170.416 27.5773 170.416C28.4389 170.416 29.2376 170.263 29.9735 169.958C30.7274 169.653 31.3735 169.186 31.912 168.558L32.9889 169.797C32.3607 170.551 31.571 171.125 30.6197 171.52C29.6863 171.915 28.6543 172.112 27.5235 172.112ZM48.4743 171.978L42.6588 164.977L44.2473 164.035L50.7359 171.978H48.4743ZM38.1088 171.978V157.843H40.0203V171.978H38.1088ZM39.428 165.677V164.035H43.9781V165.677H39.428ZM44.4089 165.112L42.6319 164.843L48.2589 157.843H50.332L44.4089 165.112ZM51.1681 171.951L51.3027 170.308C51.4284 170.326 51.545 170.353 51.6527 170.389C51.7784 170.407 51.8861 170.416 51.9758 170.416C52.5502 170.416 53.0079 170.201 53.3489 169.77C53.7079 169.339 53.9771 168.765 54.1566 168.047C54.3361 167.329 54.4617 166.521 54.5335 165.624C54.6053 164.708 54.6681 163.793 54.722 162.877L54.9643 157.843H65.3298V171.978H63.4182V158.947L63.9029 159.512H56.2028L56.6605 158.92L56.4451 163.012C56.3912 164.233 56.2925 165.399 56.1489 166.512C56.0233 167.625 55.8169 168.603 55.5297 169.447C55.2604 170.29 54.8835 170.954 54.3989 171.439C53.9143 171.906 53.295 172.139 52.5412 172.139C52.3258 172.139 52.1014 172.121 51.8681 172.085C51.6527 172.049 51.4194 172.004 51.1681 171.951ZM79.5409 171.978V168.854L79.4602 168.343V163.12C79.4602 161.917 79.1191 160.993 78.4371 160.347C77.773 159.7 76.7768 159.377 75.4486 159.377C74.5332 159.377 73.6627 159.53 72.837 159.835C72.0114 160.14 71.3113 160.544 70.737 161.047L69.8754 159.62C70.5934 159.009 71.4549 158.543 72.4601 158.22C73.4652 157.879 74.5242 157.708 75.637 157.708C77.4678 157.708 78.8768 158.166 79.864 159.081C80.8691 159.979 81.3717 161.352 81.3717 163.201V171.978H79.5409ZM74.6678 172.112C73.6088 172.112 72.6844 171.942 71.8947 171.601C71.1229 171.242 70.5306 170.757 70.1177 170.147C69.7049 169.519 69.4985 168.801 69.4985 167.993C69.4985 167.257 69.669 166.593 70.01 166.001C70.369 165.39 70.9434 164.906 71.7331 164.547C72.5408 164.17 73.6178 163.981 74.9639 163.981H79.8371V165.408H75.0178C73.6537 165.408 72.7024 165.651 72.1639 166.135C71.6434 166.62 71.3831 167.221 71.3831 167.939C71.3831 168.747 71.6972 169.393 72.3255 169.878C72.9537 170.362 73.8332 170.604 74.9639 170.604C76.0409 170.604 76.9653 170.362 77.7371 169.878C78.5268 169.375 79.1012 168.657 79.4602 167.724L79.8909 169.043C79.5319 169.976 78.9037 170.721 78.0063 171.278C77.1268 171.834 76.014 172.112 74.6678 172.112ZM86.4604 171.978V157.843H88.3989L94.8067 168.693H93.999L100.514 157.843H102.291V171.978H100.541V160.024L100.891 160.185L94.8067 170.254H93.9451L87.8066 160.077L88.2105 159.997V171.978H86.4604ZM116.508 171.978V168.854L116.427 168.343V163.12C116.427 161.917 116.086 160.993 115.404 160.347C114.74 159.7 113.744 159.377 112.416 159.377C111.5 159.377 110.63 159.53 109.804 159.835C108.978 160.14 108.278 160.544 107.704 161.047L106.842 159.62C107.56 159.009 108.422 158.543 109.427 158.22C110.432 157.879 111.491 157.708 112.604 157.708C114.435 157.708 115.844 158.166 116.831 159.081C117.836 159.979 118.339 161.352 118.339 163.201V171.978H116.508ZM111.635 172.112C110.576 172.112 109.651 171.942 108.862 171.601C108.09 171.242 107.498 170.757 107.085 170.147C106.672 169.519 106.466 168.801 106.466 167.993C106.466 167.257 106.636 166.593 106.977 166.001C107.336 165.39 107.91 164.906 108.7 164.547C109.508 164.17 110.585 163.981 111.931 163.981H116.804V165.408H111.985C110.621 165.408 109.669 165.651 109.131 166.135C108.61 166.62 108.35 167.221 108.35 167.939C108.35 168.747 108.664 169.393 109.293 169.878C109.921 170.362 110.8 170.604 111.931 170.604C113.008 170.604 113.932 170.362 114.704 169.878C115.494 169.375 116.068 168.657 116.427 167.724L116.858 169.043C116.499 169.976 115.871 170.721 114.973 171.278C114.094 171.834 112.981 172.112 111.635 172.112ZM128.158 171.978L136.774 153.131H138.739L147.355 171.978H145.255L137.339 154.289H138.147L130.232 171.978H128.158ZM131.551 166.943L132.143 165.327H143.101L143.693 166.943H131.551ZM158.969 172.139C157.551 172.139 156.232 171.906 155.011 171.439C153.809 170.954 152.759 170.281 151.861 169.42C150.982 168.54 150.291 167.526 149.788 166.377C149.303 165.211 149.061 163.936 149.061 162.554C149.061 161.172 149.303 159.907 149.788 158.758C150.291 157.591 150.982 156.577 151.861 155.716C152.759 154.836 153.809 154.163 155.011 153.697C156.214 153.212 157.533 152.97 158.969 152.97C160.387 152.97 161.697 153.212 162.9 153.697C164.102 154.163 165.143 154.827 166.023 155.689C166.92 156.55 167.611 157.565 168.096 158.731C168.598 159.898 168.85 161.172 168.85 162.554C168.85 163.936 168.598 165.211 168.096 166.377C167.611 167.544 166.92 168.558 166.023 169.42C165.143 170.281 164.102 170.954 162.9 171.439C161.697 171.906 160.387 172.139 158.969 172.139ZM158.969 170.362C160.1 170.362 161.141 170.174 162.092 169.797C163.061 169.402 163.896 168.854 164.596 168.154C165.314 167.436 165.87 166.611 166.265 165.677C166.66 164.726 166.857 163.685 166.857 162.554C166.857 161.424 166.66 160.392 166.265 159.458C165.87 158.507 165.314 157.681 164.596 156.981C163.896 156.263 163.061 155.716 162.092 155.339C161.141 154.944 160.1 154.747 158.969 154.747C157.838 154.747 156.788 154.944 155.819 155.339C154.85 155.716 154.006 156.263 153.288 156.981C152.588 157.681 152.032 158.507 151.619 159.458C151.224 160.392 151.026 161.424 151.026 162.554C151.026 163.667 151.224 164.699 151.619 165.651C152.032 166.602 152.588 167.436 153.288 168.154C154.006 168.854 154.85 169.402 155.819 169.797C156.788 170.174 157.838 170.362 158.969 170.362ZM182.724 169.985L178.82 164.897L182.724 159.808H184.5L180.677 164.897L184.5 169.985H182.724ZM187.516 169.985L183.612 164.897L187.516 159.808H189.293L185.47 164.897L189.293 169.985H187.516ZM201.747 172.139C200.329 172.139 199.009 171.906 197.789 171.439C196.586 170.954 195.536 170.281 194.639 169.42C193.759 168.54 193.068 167.526 192.566 166.377C192.081 165.211 191.839 163.936 191.839 162.554C191.839 161.172 192.081 159.907 192.566 158.758C193.068 157.591 193.759 156.577 194.639 155.716C195.536 154.836 196.586 154.163 197.789 153.697C198.991 153.212 200.311 152.97 201.747 152.97C203.165 152.97 204.475 153.212 205.677 153.697C206.88 154.163 207.921 154.827 208.801 155.689C209.698 156.55 210.389 157.565 210.874 158.731C211.376 159.898 211.627 161.172 211.627 162.554C211.627 163.936 211.376 165.211 210.874 166.377C210.389 167.544 209.698 168.558 208.801 169.42C207.921 170.281 206.88 170.954 205.677 171.439C204.475 171.906 203.165 172.139 201.747 172.139ZM201.747 170.362C202.877 170.362 203.918 170.174 204.87 169.797C205.839 169.402 206.674 168.854 207.374 168.154C208.092 167.436 208.648 166.611 209.043 165.677C209.438 164.726 209.635 163.685 209.635 162.554C209.635 161.424 209.438 160.392 209.043 159.458C208.648 158.507 208.092 157.681 207.374 156.981C206.674 156.263 205.839 155.716 204.87 155.339C203.918 154.944 202.877 154.747 201.747 154.747C200.616 154.747 199.566 154.944 198.597 155.339C197.627 155.716 196.784 156.263 196.066 156.981C195.366 157.681 194.809 158.507 194.396 159.458C194.002 160.392 193.804 161.424 193.804 162.554C193.804 163.667 194.002 164.699 194.396 165.651C194.809 166.602 195.366 167.436 196.066 168.154C196.784 168.854 197.627 169.402 198.597 169.797C199.566 170.174 200.616 170.362 201.747 170.362ZM219.861 171.978V154.316L220.4 154.854H213.238V153.131H228.45V154.854H221.315L221.827 154.316V171.978H219.861ZM231.947 171.978V153.131H233.912V168.747L245.974 153.131H247.778V171.978H245.812V156.389L233.751 171.978H231.947ZM262.376 172.139C260.958 172.139 259.648 171.906 258.445 171.439C257.243 170.954 256.202 170.281 255.322 169.42C254.443 168.558 253.752 167.544 253.249 166.377C252.764 165.211 252.522 163.936 252.522 162.554C252.522 161.172 252.764 159.898 253.249 158.731C253.752 157.565 254.443 156.55 255.322 155.689C256.22 154.827 257.27 154.163 258.472 153.697C259.675 153.212 260.985 152.97 262.403 152.97C263.767 152.97 265.051 153.203 266.253 153.67C267.456 154.118 268.47 154.8 269.295 155.716L268.03 156.981C267.258 156.191 266.406 155.626 265.472 155.285C264.539 154.926 263.534 154.747 262.457 154.747C261.326 154.747 260.276 154.944 259.307 155.339C258.338 155.716 257.494 156.263 256.776 156.981C256.058 157.681 255.493 158.507 255.08 159.458C254.685 160.392 254.488 161.424 254.488 162.554C254.488 163.685 254.685 164.726 255.08 165.677C255.493 166.611 256.058 167.436 256.776 168.154C257.494 168.854 258.338 169.402 259.307 169.797C260.276 170.174 261.326 170.362 262.457 170.362C263.534 170.362 264.539 170.183 265.472 169.824C266.406 169.465 267.258 168.89 268.03 168.101L269.295 169.366C268.47 170.281 267.456 170.972 266.253 171.439C265.051 171.906 263.758 172.139 262.376 172.139ZM273.41 171.978V153.131H275.375V168.747L287.437 153.131H289.241V171.978H287.275V156.389L275.214 171.978H273.41ZM304.512 170.685C302.269 170.685 300.348 170.371 298.751 169.743C297.153 169.097 295.924 168.163 295.062 166.943C294.201 165.722 293.77 164.251 293.77 162.527C293.77 160.804 294.201 159.341 295.062 158.139C295.924 156.918 297.153 155.985 298.751 155.339C300.348 154.693 302.269 154.37 304.512 154.37C304.53 154.37 304.575 154.37 304.647 154.37C304.719 154.37 304.79 154.37 304.862 154.37C304.934 154.37 304.979 154.37 304.997 154.37C307.258 154.37 309.188 154.693 310.785 155.339C312.383 155.985 313.612 156.918 314.474 158.139C315.335 159.341 315.766 160.804 315.766 162.527C315.766 164.251 315.335 165.722 314.474 166.943C313.63 168.163 312.41 169.097 310.812 169.743C309.215 170.371 307.303 170.685 305.078 170.685C305.042 170.685 304.979 170.685 304.889 170.685C304.817 170.685 304.737 170.685 304.647 170.685C304.575 170.685 304.53 170.685 304.512 170.685ZM304.728 169.124C304.764 169.124 304.799 169.124 304.835 169.124C304.871 169.124 304.898 169.124 304.916 169.124C306.801 169.106 308.407 168.845 309.735 168.343C311.082 167.822 312.105 167.077 312.805 166.108C313.505 165.121 313.855 163.927 313.855 162.527C313.855 161.109 313.496 159.916 312.778 158.947C312.078 157.977 311.064 157.241 309.735 156.739C308.425 156.218 306.837 155.958 304.97 155.958C304.952 155.958 304.916 155.958 304.862 155.958C304.808 155.958 304.764 155.958 304.728 155.958C302.825 155.958 301.201 156.209 299.855 156.712C298.508 157.215 297.476 157.959 296.758 158.947C296.04 159.916 295.681 161.109 295.681 162.527C295.681 163.963 296.04 165.175 296.758 166.162C297.494 167.131 298.535 167.867 299.881 168.37C301.246 168.872 302.861 169.124 304.728 169.124ZM303.839 172.624V152.485H305.697V172.624H303.839ZM317.253 171.978L325.869 153.131H327.834L336.449 171.978H334.349L326.434 154.289H327.242L319.326 171.978H317.253ZM320.645 166.943L321.238 165.327H332.196L332.788 166.943H320.645ZM340.061 171.978V153.131H347.115C348.712 153.131 350.085 153.391 351.234 153.912C352.383 154.415 353.262 155.15 353.873 156.12C354.501 157.071 354.815 158.229 354.815 159.593C354.815 160.921 354.501 162.07 353.873 163.039C353.262 163.99 352.383 164.726 351.234 165.247C350.085 165.767 348.712 166.027 347.115 166.027H341.165L342.053 165.085V171.978H340.061ZM342.053 165.247L341.165 164.277H347.061C348.946 164.277 350.373 163.874 351.342 163.066C352.329 162.24 352.823 161.083 352.823 159.593C352.823 158.085 352.329 156.918 351.342 156.093C350.373 155.267 348.946 154.854 347.061 154.854H341.165L342.053 153.912V165.247ZM358.886 171.978V153.131H360.529L369.144 167.831H368.283L376.817 153.131H378.46V171.978H376.548V156.12H377.006L369.144 169.581H368.202L360.286 156.12H360.798V171.978H358.886ZM384.434 169.985H382.657L386.48 164.897L382.657 159.808H384.434L388.338 164.897L384.434 169.985ZM389.226 169.985H387.449L391.272 164.897L387.449 159.808H389.226L393.13 164.897L389.226 169.985Z" fill="white" fill-opacity="0.5"/>
</svg>
