<svg width="166" height="35" viewBox="0 0 166 35" fill="none" xmlns="http://www.w3.org/2000/svg">
<g clip-path="url(#clip0_466_476)">
<mask id="mask0_466_476" style="mask-type:luminance" maskUnits="userSpaceOnUse" x="0" y="0" width="166" height="35">
<path d="M165.779 0.583984H0.353516V34.8977H165.779V0.583984Z" fill="white"/>
</mask>
<g mask="url(#mask0_466_476)">
<path d="M111.273 24.5857V24.7546C111.284 25.6214 112.001 26.3193 112.867 26.3193H113.05H113.437V20.1726C113.437 18.9905 112.947 17.8423 112.104 17.0317C111.284 16.1986 110.122 15.7258 108.925 15.7258H105.006C104.174 15.7258 103.376 15.951 102.682 16.3675V15.0053C102.682 14.1384 101.963 13.4404 101.098 13.4404H100.972H100.517V26.3081H101.098C101.975 26.3081 102.682 25.6101 102.682 24.7433V24.4393V20.1613C102.682 18.9005 103.73 17.8648 105.017 17.8535H108.937C110.213 17.8535 111.273 18.8892 111.284 20.1726V24.5632L111.273 24.5857ZM129.468 19.3395C129.445 17.3469 127.805 15.737 125.799 15.737H118.268V16.3562V16.3224C118.279 17.1893 118.997 17.8873 119.863 17.8873H119.943H125.799C126.608 17.8873 127.281 18.5515 127.292 19.3621V19.4521H119.59C117.619 19.4521 116.012 21.0057 116.012 22.9083C116.012 23.3924 116.114 23.8539 116.308 24.2817C116.878 25.5426 118.188 26.3532 119.647 26.3532H128.91L129.468 26.3644V19.3621V19.3395ZM127.292 24.1917H119.59C118.827 24.1917 118.188 23.6062 118.177 22.8858C118.177 22.4579 118.405 22.0752 118.804 21.8275C119.054 21.6699 119.35 21.5799 119.647 21.5799H127.303V24.1917H127.292ZM161.28 15.737H149.635C147.151 15.737 145.134 17.7409 145.134 20.1952V26.3419H145.716C146.593 26.3419 147.299 25.6439 147.299 24.7771V24.6307V20.1952C147.299 18.9455 148.348 17.8873 149.601 17.8873H154.363V24.7771C154.363 25.6439 155.069 26.3419 155.947 26.3419H156.084H156.528V17.8873H161.291C162.533 17.8873 163.592 18.9455 163.592 20.1952V24.7771C163.592 25.6439 164.31 26.3419 165.176 26.3419H165.757V20.1952C165.757 17.7409 163.74 15.737 161.257 15.737H161.28ZM133 26.3419C133.878 26.3419 134.584 25.6439 134.584 24.7771V24.6082V20.1839C134.584 18.9118 135.632 17.8873 136.908 17.8873H142.046C142.924 17.8873 143.631 17.178 143.631 16.3224V15.7483H136.908C134.424 15.7483 132.407 17.7409 132.407 20.1952V26.3532H132.989L133 26.3419ZM94.3642 15.737H83.711V26.3307H84.3146C85.1918 26.3307 85.8982 25.6326 85.8982 24.7658V24.6532V22.6493H94.2954C96.2784 22.6493 97.9419 21.062 97.9419 19.1932C97.9419 17.3244 96.3006 15.737 94.3642 15.737ZM94.3184 20.5104H85.8871V17.8873H94.2843C95.0817 17.8873 95.7429 18.4839 95.7651 19.2157C95.754 19.9025 95.0817 20.5104 94.3184 20.5104ZM97.3494 30.5298H93.0765C92.8827 30.5298 92.7917 30.6199 92.7917 30.7999V30.8901C92.7917 31.0701 92.8827 31.1715 93.0765 31.1715H94.8198V34.5375C94.8198 34.7177 94.9108 34.819 95.0935 34.819H95.3213C95.5033 34.819 95.5943 34.7289 95.5943 34.5375V31.1715H97.3494C97.5432 31.1715 97.6224 31.0814 97.6224 30.8901V30.7999C97.6224 30.6199 97.5314 30.5298 97.3494 30.5298ZM88.2687 30.6874C87.9833 30.5748 87.5394 30.5298 86.9352 30.5298H85.7051C84.3716 30.5298 83.6992 30.9126 83.6992 31.6893V33.6594C83.6992 33.8509 83.7451 34.0197 83.8479 34.1773C84.1208 34.5938 84.748 34.8077 85.7051 34.8077H86.9352C88.2798 34.8077 88.9404 34.425 88.9404 33.6594V31.6893C88.9404 31.194 88.7126 30.8675 88.2569 30.6874H88.2687ZM88.1541 33.6369C88.1541 33.9859 87.7555 34.1661 86.9581 34.1661H85.7051C84.8959 34.1661 84.4973 33.9859 84.4973 33.6369V31.7006C84.4973 31.3403 84.8959 31.1602 85.7051 31.1602H86.9581C87.7555 31.1602 88.1541 31.3403 88.1541 31.7006V33.6369ZM143.904 30.7099C143.859 30.5635 143.699 30.4847 143.448 30.4847C143.231 30.4847 143.072 30.5523 142.97 30.7099L140.475 34.4813C140.475 34.4813 140.463 34.5263 140.463 34.5488C140.463 34.5938 140.475 34.6389 140.509 34.6839C140.577 34.7852 140.691 34.8415 140.839 34.8415C140.907 34.8415 140.964 34.819 141.021 34.774C141.044 34.7514 141.067 34.7289 141.089 34.6839L141.785 33.6707H145.123L145.818 34.6839C145.921 34.8302 146.023 34.8978 146.149 34.8978C146.262 34.8978 146.365 34.864 146.444 34.7852C146.524 34.7177 146.558 34.6163 146.558 34.5038C146.558 34.47 146.558 34.4362 146.558 34.4025L143.916 30.6987L143.904 30.7099ZM142.24 33.0403L143.448 31.2953L144.645 33.0403H142.24ZM107.011 30.5523C106.954 30.5185 106.886 30.496 106.806 30.496C106.704 30.496 106.578 30.5298 106.441 30.6085C106.384 30.6424 106.327 30.6761 106.27 30.7212L102.636 33.7833V30.7999C102.636 30.6199 102.545 30.5298 102.351 30.5298H102.123C101.941 30.5298 101.838 30.6199 101.838 30.7999V34.3461C101.838 34.5488 101.895 34.6839 101.998 34.7514C102.077 34.8077 102.191 34.8302 102.363 34.8302C102.431 34.8302 102.511 34.7965 102.602 34.7289C102.613 34.7289 102.659 34.6839 102.727 34.6276L106.418 31.5317V34.5263C106.418 34.7064 106.51 34.8077 106.692 34.8077H106.92C107.102 34.8077 107.193 34.7177 107.193 34.5263V30.7999C107.193 30.6987 107.125 30.6199 106.989 30.541L107.011 30.5523ZM154.398 30.7099C154.067 30.586 153.691 30.5298 153.27 30.5298H149.977C149.794 30.5298 149.703 30.6199 149.703 30.7999V34.5263C149.703 34.7064 149.794 34.8077 149.977 34.8077H150.205C150.399 34.8077 150.49 34.7177 150.49 34.5263V33.2766H153.235C153.726 33.2766 154.135 33.2091 154.443 33.0628C154.876 32.8714 155.092 32.5674 155.092 32.1396V31.4754C155.092 31.1264 154.865 30.8675 154.398 30.6987V30.7099ZM154.306 32.1171C154.306 32.3198 154.204 32.4661 153.998 32.5449C153.839 32.6012 153.6 32.635 153.281 32.635H150.49V31.1602H153.27C153.953 31.1602 154.306 31.284 154.306 31.5317V32.1171ZM165.347 30.541C165.142 30.541 164.993 30.6085 164.879 30.7437L162.168 33.9972L159.388 30.7549C159.263 30.6198 159.115 30.541 158.955 30.541C158.83 30.541 158.716 30.5748 158.636 30.6536C158.533 30.7324 158.488 30.8337 158.488 30.9463V34.5375C158.488 34.7177 158.579 34.819 158.761 34.819H159.001C159.183 34.819 159.285 34.7289 159.285 34.5375V31.7569L161.655 34.6051C161.78 34.7515 161.952 34.8302 162.157 34.8302C162.362 34.8302 162.533 34.7515 162.658 34.6051L164.982 31.7681V34.5375C164.982 34.7177 165.073 34.819 165.256 34.819H165.495C165.678 34.819 165.769 34.7289 165.769 34.5375V30.9801C165.769 30.6987 165.621 30.5523 165.336 30.5523L165.347 30.541ZM137.512 30.7099C137.182 30.586 136.805 30.5298 136.384 30.5298H131.086C130.665 30.5298 130.288 30.586 129.958 30.7099C129.502 30.8787 129.263 31.1377 129.263 31.4867V32.1509C129.263 32.5787 129.48 32.8827 129.913 33.0741C130.231 33.2091 130.63 33.2879 131.12 33.2879H133.342V34.5375C133.342 34.7177 133.433 34.819 133.615 34.819H133.855C134.037 34.819 134.128 34.7289 134.128 34.5375V33.2879H136.35C136.84 33.2879 137.25 33.2204 137.558 33.0741C137.99 32.8827 138.207 32.5787 138.207 32.1509V31.4867C138.207 31.1377 137.979 30.8787 137.512 30.7099ZM133.33 32.6462H131.063C130.744 32.6462 130.505 32.6125 130.345 32.5562C130.14 32.4773 130.038 32.331 130.038 32.1284V31.543C130.038 31.2953 130.379 31.1715 131.075 31.1715H133.33V32.6462ZM137.421 32.1284C137.421 32.331 137.319 32.4773 137.113 32.5562C136.954 32.6125 136.714 32.6462 136.396 32.6462H134.128V31.1715H136.384C137.068 31.1715 137.421 31.2953 137.421 31.543V32.1284ZM125.218 30.5523C125.161 30.5185 125.093 30.496 125.013 30.496C124.899 30.496 124.785 30.5298 124.648 30.6085C124.58 30.6424 124.523 30.6761 124.478 30.7212L120.832 33.7833V30.7999C120.832 30.6199 120.741 30.5298 120.547 30.5298H120.319C120.137 30.5298 120.046 30.6199 120.046 30.7999V34.3461C120.046 34.5488 120.091 34.6839 120.205 34.7514C120.273 34.8077 120.398 34.8302 120.569 34.8302C120.638 34.8302 120.718 34.7965 120.809 34.7289C120.82 34.7289 120.866 34.6839 120.934 34.6276L124.626 31.5317V34.5263C124.626 34.7064 124.717 34.8077 124.899 34.8077H125.139C125.321 34.8077 125.412 34.7177 125.412 34.5263V30.7999C125.412 30.6987 125.344 30.6199 125.207 30.541L125.218 30.5523ZM115.807 30.5298H112.981C112.696 30.5298 112.48 30.541 112.309 30.5748C112.024 30.6199 111.762 30.7324 111.557 30.8901C111.307 31.0814 111.181 31.3066 111.181 31.5767V33.7045C111.181 34.0759 111.375 34.3687 111.773 34.5826C111.967 34.6839 112.184 34.7514 112.423 34.7852C112.56 34.8077 112.787 34.8077 113.107 34.8077H115.796C115.978 34.8077 116.069 34.7177 116.069 34.5263V34.4362C116.069 34.2448 115.978 34.1548 115.796 34.1548H113.107C112.787 34.1548 112.56 34.1323 112.423 34.0985C112.116 34.0197 111.967 33.8734 111.967 33.6707V31.5542C111.967 31.284 112.309 31.1489 112.993 31.1489H115.807C115.989 31.1489 116.092 31.0589 116.092 30.8675V30.7774C116.092 30.5973 116 30.5073 115.807 30.5073V30.5298Z" fill="white"/>
<path d="M14.4704 34.7062C10.5623 34.7062 7.23534 33.3778 4.47804 30.7097C1.73216 28.0416 0.353516 24.7769 0.353516 20.9154C0.353516 17.054 1.73216 13.7893 4.47804 11.0986C7.23534 8.40804 10.5623 7.06836 14.4704 7.06836C18.3784 7.06836 21.7167 8.40804 24.4741 11.0986C27.2313 13.7893 28.6213 17.054 28.6213 20.9154C28.6213 24.7769 27.2427 28.0416 24.4741 30.7097C21.7053 33.3778 18.367 34.7062 14.4704 34.7062ZM14.4704 13.8568C12.522 13.8568 10.8699 14.5435 9.53683 15.917C8.19237 17.2904 7.53157 18.9566 7.53157 20.9041C7.53157 22.8517 8.20376 24.4841 9.55961 25.8463C10.9041 27.2085 12.5448 27.8952 14.4818 27.8952C16.4187 27.8952 18.0822 27.2085 19.438 25.8463C20.7825 24.4841 21.466 22.8292 21.466 20.9041C21.466 18.9791 20.7939 17.3129 19.438 15.9282C18.0822 14.5435 16.4415 13.8455 14.4818 13.8455L14.4704 13.8568Z" fill="white"/>
<path d="M67.566 34.7062C63.6579 34.7062 60.331 33.3778 57.5737 30.7097C54.8165 28.0416 53.4492 24.7769 53.4492 20.9154C53.4492 17.054 54.8279 13.7893 57.5737 11.0986C60.331 8.40804 63.6579 7.06836 67.566 7.06836H76.157C76.157 8.99343 75.6444 10.592 74.6074 11.8529C73.5135 13.2038 72.0098 13.868 70.0955 13.868H67.5546C65.6291 13.868 63.977 14.566 62.5983 15.9507C61.2311 17.3354 60.5361 19.0016 60.5361 20.9266C60.5361 22.8517 61.2197 24.5067 62.5755 25.8688C63.9314 27.231 65.5949 27.9177 67.5432 27.9177H70.0837C71.9868 27.9177 73.4906 28.5932 74.5956 29.9329C75.6326 31.1938 76.1452 32.7811 76.1452 34.7175H67.5546L67.566 34.7062Z" fill="white"/>
<path d="M52.638 29.9218C51.5214 28.5821 50.0061 27.9066 48.0919 27.9066H45.0498C43.1242 27.9066 41.4835 27.2199 40.1277 25.8577C38.7832 24.4956 38.0996 22.8406 38.0996 20.9155V19.6434C37.6666 19.4183 37.2679 19.1368 36.9032 18.7878C35.969 17.876 35.4677 16.6938 35.4677 15.3654C35.4677 14.037 35.9462 12.8662 36.8919 11.9206C37.2565 11.5603 37.6552 11.2676 38.0882 11.0424V6.86585C38.0882 4.91823 37.3704 3.36466 35.9462 2.21636C34.6131 1.13562 32.9269 0.583984 30.9102 0.583984V20.9155C30.9102 24.777 32.2888 28.0417 35.0461 30.7098C37.8034 33.3779 41.1303 34.7064 45.0384 34.7064H54.1761C54.1761 32.7812 53.6634 31.1826 52.6266 29.9218H52.638Z" fill="white"/>
<path d="M52.1367 11.9434C52.1367 14.1161 51.5443 15.7822 50.3593 16.953C49.5275 17.7749 48.7869 18.2927 48.1489 18.5179C47.7045 18.6643 42.5432 18.743 41.5747 18.743H40.3897C39.4213 18.743 38.601 18.4166 37.9401 17.7637C37.2679 17.1107 36.9375 16.3114 36.9375 15.3657C36.9375 14.4201 37.2679 13.5982 37.9401 12.934C38.6124 12.2698 39.4327 11.9434 40.3897 11.9434H52.1367Z" fill="white"/>
</g>
</g>
<defs>
<clipPath id="clip0_466_476">
<rect width="166" height="35" fill="white"/>
</clipPath>
</defs>
</svg>
