<svg width="396" height="37" viewBox="0 0 396 37" fill="none" xmlns="http://www.w3.org/2000/svg">
<path d="M390.5 33.8828C390.5 35.3556 391.694 36.5495 393.167 36.5495C394.639 36.5495 395.833 35.3556 395.833 33.8828C395.833 32.4101 394.639 31.2161 393.167 31.2161C391.694 31.2161 390.5 32.4101 390.5 33.8828ZM276.667 2.6665L276.796 2.18354L276.732 2.1665H276.667V2.6665ZM-0.00016284 2.6665C-0.00016284 4.13926 1.19374 5.33317 2.6665 5.33317C4.13926 5.33317 5.33317 4.13926 5.33317 2.6665C5.33317 1.19374 4.13926 -0.00016284 2.6665 -0.00016284C1.19374 -0.00016284 -0.00016284 1.19374 -0.00016284 2.6665ZM2.6665 2.6665V3.1665H3.65926V2.6665V2.1665H2.6665V2.6665ZM5.64476 2.6665V3.1665H7.63027V2.6665V2.1665H5.64476V2.6665ZM9.61578 2.6665V3.1665H11.6013V2.6665V2.1665H9.61578V2.6665ZM13.5868 2.6665V3.1665H15.5723V2.6665V2.1665H13.5868V2.6665ZM17.5578 2.6665V3.1665H19.5433V2.6665V2.1665H17.5578V2.6665ZM21.5288 2.6665V3.1665H23.5143V2.6665V2.1665H21.5288V2.6665ZM25.4998 2.6665V3.1665H27.4853V2.6665V2.1665H25.4998V2.6665ZM29.4709 2.6665V3.1665H31.4564V2.6665V2.1665H29.4709V2.6665ZM33.4419 2.6665V3.1665H35.4274V2.6665V2.1665H33.4419V2.6665ZM37.4129 2.6665V3.1665H39.3984V2.6665V2.1665H37.4129V2.6665ZM41.3839 2.6665V3.1665H43.3694V2.6665V2.1665H41.3839V2.6665ZM45.3549 2.6665V3.1665H47.3404V2.6665V2.1665H45.3549V2.6665ZM49.3259 2.6665V3.1665H51.3114V2.6665V2.1665H49.3259V2.6665ZM53.2969 2.6665V3.1665H55.2825V2.6665V2.1665H53.2969V2.6665ZM57.268 2.6665V3.1665H59.2535V2.6665V2.1665H57.268V2.6665ZM61.239 2.6665V3.1665H63.2245V2.6665V2.1665H61.239V2.6665ZM65.21 2.6665V3.1665H67.1955V2.6665V2.1665H65.21V2.6665ZM69.181 2.6665V3.1665H71.1665V2.6665V2.1665H69.181V2.6665ZM73.152 2.6665V3.1665H75.1375V2.6665V2.1665H73.152V2.6665ZM77.123 2.6665V3.1665H79.1085V2.6665V2.1665H77.123V2.6665ZM81.094 2.6665V3.1665H83.0795V2.6665V2.1665H81.094V2.6665ZM85.065 2.6665V3.1665H87.0505V2.6665V2.1665H85.065V2.6665ZM89.036 2.6665V3.1665H91.0216V2.6665V2.1665H89.036V2.6665ZM93.0071 2.6665V3.1665H94.9926V2.6665V2.1665H93.0071V2.6665ZM96.9781 2.6665V3.1665H98.9636V2.6665V2.1665H96.9781V2.6665ZM100.949 2.6665V3.1665H102.935V2.6665V2.1665H100.949V2.6665ZM104.92 2.6665V3.1665H106.906V2.6665V2.1665H104.92V2.6665ZM108.891 2.6665V3.1665H110.877V2.6665V2.1665H108.891V2.6665ZM112.862 2.6665V3.1665H114.848V2.6665V2.1665H112.862V2.6665ZM116.833 2.6665V3.1665H118.819V2.6665V2.1665H116.833V2.6665ZM120.804 2.6665V3.1665H122.79V2.6665V2.1665H120.804V2.6665ZM124.775 2.6665V3.1665H126.761V2.6665V2.1665H124.775V2.6665ZM128.746 2.6665V3.1665H130.732V2.6665V2.1665H128.746V2.6665ZM132.717 2.6665V3.1665H134.703V2.6665V2.1665H132.717V2.6665ZM136.688 2.6665V3.1665H138.674V2.6665V2.1665H136.688V2.6665ZM140.659 2.6665V3.1665H142.645V2.6665V2.1665H140.659V2.6665ZM144.63 2.6665V3.1665H146.616V2.6665V2.1665H144.63V2.6665ZM148.601 2.6665V3.1665H150.587V2.6665V2.1665H148.601V2.6665ZM152.572 2.6665V3.1665H154.558V2.6665V2.1665H152.572V2.6665ZM156.543 2.6665V3.1665H158.529V2.6665V2.1665H156.543V2.6665ZM160.514 2.6665V3.1665H162.5V2.6665V2.1665H160.514V2.6665ZM164.485 2.6665V3.1665H166.471V2.6665V2.1665H164.485V2.6665ZM168.456 2.6665V3.1665H170.442V2.6665V2.1665H168.456V2.6665ZM172.427 2.6665V3.1665H174.413V2.6665V2.1665H172.427V2.6665ZM176.398 2.6665V3.1665H178.384V2.6665V2.1665H176.398V2.6665ZM180.369 2.6665V3.1665H182.355V2.6665V2.1665H180.369V2.6665ZM184.34 2.6665V3.1665H186.326V2.6665V2.1665H184.34V2.6665ZM188.311 2.6665V3.1665H190.297V2.6665V2.1665H188.311V2.6665ZM192.282 2.6665V3.1665H194.268V2.6665V2.1665H192.282V2.6665ZM196.253 2.6665V3.1665H198.239V2.6665V2.1665H196.253V2.6665ZM200.224 2.6665V3.1665H202.21V2.6665V2.1665H200.224V2.6665ZM204.195 2.6665V3.1665H206.181V2.6665V2.1665H204.195V2.6665ZM208.166 2.6665V3.1665H210.152V2.6665V2.1665H208.166V2.6665ZM212.137 2.6665V3.1665H214.123V2.6665V2.1665H212.137V2.6665ZM216.108 2.6665V3.1665H218.094V2.6665V2.1665H216.108V2.6665ZM220.079 2.6665V3.1665H222.065V2.6665V2.1665H220.079V2.6665ZM224.05 2.6665V3.1665H226.036V2.6665V2.1665H224.05V2.6665ZM228.021 2.6665V3.1665H230.007V2.6665V2.1665H228.021V2.6665ZM231.992 2.6665V3.1665H233.978V2.6665V2.1665H231.992V2.6665ZM235.963 2.6665V3.1665H237.949V2.6665V2.1665H235.963V2.6665ZM239.934 2.6665V3.1665H241.92V2.6665V2.1665H239.934V2.6665ZM243.905 2.6665V3.1665H245.891V2.6665V2.1665H243.905V2.6665ZM247.876 2.6665V3.1665H249.862V2.6665V2.1665H247.876V2.6665ZM251.847 2.6665V3.1665H253.833V2.6665V2.1665H251.847V2.6665ZM255.818 2.6665V3.1665H257.804V2.6665V2.1665H255.818V2.6665ZM259.789 2.6665V3.1665H261.775V2.6665V2.1665H259.789V2.6665ZM263.76 2.6665V3.1665H265.746V2.6665V2.1665H263.76V2.6665ZM267.731 2.6665V3.1665H269.717V2.6665V2.1665H267.731V2.6665ZM271.702 2.6665V3.1665H273.688V2.6665V2.1665H271.702V2.6665ZM275.673 2.6665V3.1665H276.667V2.6665V2.1665H275.673V2.6665ZM276.667 2.6665L276.537 3.14947L277.508 3.4096L277.637 2.92664L277.767 2.44368L276.796 2.18354L276.667 2.6665ZM279.579 3.44691L279.45 3.92987L281.391 4.45015L281.521 3.96718L281.65 3.48422L279.708 2.96395L279.579 3.44691ZM283.462 4.48746L283.333 4.97042L285.275 5.49069L285.404 5.00773L285.533 4.52476L283.592 4.00449L283.462 4.48746ZM287.346 5.528L287.216 6.01096L289.158 6.53123L289.287 6.04827L289.417 5.56531L287.475 5.04504L287.346 5.528ZM291.229 6.56854L291.1 7.05151L293.041 7.57178L293.171 7.08881L293.3 6.60585L291.358 6.08558L291.229 6.56854ZM295.112 7.60909L294.983 8.09205L296.925 8.61232L297.054 8.12936L297.183 7.6464L295.242 7.12612L295.112 7.60909ZM298.996 8.64963L298.866 9.13259L300.808 9.65286L300.937 9.1699L301.067 8.68694L299.125 8.16667L298.996 8.64963ZM302.879 9.69017L302.75 10.1731L304.691 10.6934L304.821 10.2104L304.95 9.72748L303.008 9.20721L302.879 9.69017ZM306.762 10.7307L306.633 11.2137L308.575 11.734L308.704 11.251L308.833 10.768L306.892 10.2478L306.762 10.7307ZM310.646 11.7713L310.516 12.2542L312.458 12.7745L312.587 12.2915L312.717 11.8086L310.775 11.2883L310.646 11.7713ZM314.529 12.8118L314.4 13.2948L316.341 13.815L316.471 13.3321L316.6 12.8491L314.658 12.3288L314.529 12.8118ZM318.412 13.8523L318.283 14.3353L320.225 14.8556L320.354 14.3726L320.483 13.8897L318.542 13.3694L318.412 13.8523ZM322.296 14.8929L322.166 15.3759L324.108 15.8961L324.237 15.4132L324.367 14.9302L322.425 14.4099L322.296 14.8929ZM326.179 15.9334L326.05 16.4164L327.991 16.9367L328.121 16.4537L328.25 15.9707L326.308 15.4505L326.179 15.9334ZM330.062 16.974L329.933 17.4569L331.875 17.9772L332.004 17.4943L332.133 17.0113L330.192 16.491L330.062 16.974ZM333.946 18.0145L333.816 18.4975L335.758 19.0178L335.887 18.5348L336.017 18.0518L334.075 17.5316L333.946 18.0145ZM337.829 19.0551L337.7 19.538L339.641 20.0583L339.771 19.5753L339.9 19.0924L337.958 18.5721L337.829 19.0551ZM341.712 20.0956L341.583 20.5786L343.525 21.0988L343.654 20.6159L343.783 20.1329L341.842 19.6126L341.712 20.0956ZM345.596 21.1362L345.466 21.6191L347.408 22.1394L347.537 21.6564L347.667 21.1735L345.725 20.6532L345.596 21.1362ZM349.479 22.1767L349.35 22.6597L351.291 23.1799L351.421 22.697L351.55 22.214L349.608 21.6937L349.479 22.1767ZM353.362 23.2172L353.233 23.7002L355.175 24.2205L355.304 23.7375L355.433 23.2545L353.492 22.7343L353.362 23.2172ZM357.246 24.2578L357.116 24.7407L359.058 25.261L359.187 24.7781L359.317 24.2951L357.375 23.7748L357.246 24.2578ZM361.129 25.2983L361 25.7813L362.941 26.3016L363.071 25.8186L363.2 25.3356L361.258 24.8154L361.129 25.2983ZM365.012 26.3389L364.883 26.8218L366.825 27.3421L366.954 26.8591L367.083 26.3762L365.142 25.8559L365.012 26.3389ZM368.896 27.3794L368.766 27.8624L370.708 28.3827L370.837 27.8997L370.967 27.4167L369.025 26.8965L368.896 27.3794ZM372.779 28.42L372.65 28.9029L374.591 29.4232L374.721 28.9402L374.85 28.4573L372.908 27.937L372.779 28.42ZM376.662 29.4605L376.533 29.9435L378.475 30.4637L378.604 29.9808L378.733 29.4978L376.792 28.9775L376.662 29.4605ZM380.546 30.501L380.416 30.984L382.358 31.5043L382.487 31.0213L382.617 30.5384L380.675 30.0181L380.546 30.501ZM384.429 31.5416L384.3 32.0246L386.241 32.5448L386.371 32.0619L386.5 31.5789L384.558 31.0586L384.429 31.5416ZM388.312 32.5821L388.183 33.0651L390.125 33.5854L390.254 33.1024L390.383 32.6194L388.442 32.0992L388.312 32.5821ZM392.196 33.6227L392.066 34.1056L393.037 34.3658L393.167 33.8828L393.296 33.3998L392.325 33.1397L392.196 33.6227Z" fill="#0EA34A"/>
</svg>
