<svg width="310" height="60" viewBox="0 0 310 60" fill="none" xmlns="http://www.w3.org/2000/svg">
<path d="M5.33316 56.6665C5.33316 58.1393 4.13925 59.3332 2.6665 59.3332C1.19376 59.3332 -0.000152588 58.1393 -0.000152588 56.6665C-0.000152588 55.1937 1.19376 53.9998 2.6665 53.9998C4.13925 53.9998 5.33316 55.1937 5.33316 56.6665ZM121.667 2.6665L121.46 2.21119L121.558 2.1665H121.667V2.6665ZM309.333 2.6665C309.333 4.13926 308.139 5.33317 306.667 5.33317C305.194 5.33317 304 4.13926 304 2.6665C304 1.19374 305.194 -0.00016284 306.667 -0.00016284C308.139 -0.00016284 309.333 1.19374 309.333 2.6665ZM306.667 2.6665V3.1665H305.661V2.6665V2.1665H306.667V2.6665ZM303.65 2.6665V3.1665H301.639V2.6665V2.1665H303.65V2.6665ZM299.628 2.6665V3.1665H297.618V2.6665V2.1665H299.628V2.6665ZM295.607 2.6665V3.1665H293.596V2.6665V2.1665H295.607V2.6665ZM291.585 2.6665V3.1665H289.574V2.6665V2.1665H291.585V2.6665ZM287.563 2.6665V3.1665H285.552V2.6665V2.1665H287.563V2.6665ZM283.542 2.6665V3.1665H281.531V2.6665V2.1665H283.542V2.6665ZM279.52 2.6665V3.1665H277.509V2.6665V2.1665H279.52V2.6665ZM275.498 2.6665V3.1665H273.487V2.6665V2.1665H275.498V2.6665ZM271.476 2.6665V3.1665H269.465V2.6665V2.1665H271.476V2.6665ZM267.455 2.6665V3.1665H265.444V2.6665V2.1665H267.455V2.6665ZM263.433 2.6665V3.1665H261.422V2.6665V2.1665H263.433V2.6665ZM259.411 2.6665V3.1665H257.4V2.6665V2.1665H259.411V2.6665ZM255.389 2.6665V3.1665H253.378V2.6665V2.1665H255.389V2.6665ZM251.368 2.6665V3.1665H249.357V2.6665V2.1665H251.368V2.6665ZM247.346 2.6665V3.1665H245.335V2.6665V2.1665H247.346V2.6665ZM243.324 2.6665V3.1665H241.313V2.6665V2.1665H243.324V2.6665ZM239.302 2.6665V3.1665H237.292V2.6665V2.1665H239.302V2.6665ZM235.281 2.6665V3.1665H233.27V2.6665V2.1665H235.281V2.6665ZM231.259 2.6665V3.1665H229.248V2.6665V2.1665H231.259V2.6665ZM227.237 2.6665V3.1665H225.226V2.6665V2.1665H227.237V2.6665ZM223.215 2.6665V3.1665H221.205V2.6665V2.1665H223.215V2.6665ZM219.194 2.6665V3.1665H217.183V2.6665V2.1665H219.194V2.6665ZM215.172 2.6665V3.1665H213.161V2.6665V2.1665H215.172V2.6665ZM211.15 2.6665V3.1665H209.139V2.6665V2.1665H211.15V2.6665ZM207.128 2.6665V3.1665H205.118V2.6665V2.1665H207.128V2.6665ZM203.107 2.6665V3.1665H201.096V2.6665V2.1665H203.107V2.6665ZM199.085 2.6665V3.1665H197.074V2.6665V2.1665H199.085V2.6665ZM195.063 2.6665V3.1665H193.052V2.6665V2.1665H195.063V2.6665ZM191.041 2.6665V3.1665H189.031V2.6665V2.1665H191.041V2.6665ZM187.02 2.6665V3.1665H185.009V2.6665V2.1665H187.02V2.6665ZM182.998 2.6665V3.1665H180.987V2.6665V2.1665H182.998V2.6665ZM178.976 2.6665V3.1665H176.965V2.6665V2.1665H178.976V2.6665ZM174.954 2.6665V3.1665H172.944V2.6665V2.1665H174.954V2.6665ZM170.933 2.6665V3.1665H168.922V2.6665V2.1665H170.933V2.6665ZM166.911 2.6665V3.1665H164.9V2.6665V2.1665H166.911V2.6665ZM162.889 2.6665V3.1665H160.878V2.6665V2.1665H162.889V2.6665ZM158.868 2.6665V3.1665H156.857V2.6665V2.1665H158.868V2.6665ZM154.846 2.6665V3.1665H152.835V2.6665V2.1665H154.846V2.6665ZM150.824 2.6665V3.1665H148.813V2.6665V2.1665H150.824V2.6665ZM146.802 2.6665V3.1665H144.792V2.6665V2.1665H146.802V2.6665ZM142.781 2.6665V3.1665H140.77V2.6665V2.1665H142.781V2.6665ZM138.759 2.6665V3.1665H136.748V2.6665V2.1665H138.759V2.6665ZM134.737 2.6665V3.1665H132.726V2.6665V2.1665H134.737V2.6665ZM130.715 2.6665V3.1665H128.705V2.6665V2.1665H130.715V2.6665ZM126.694 2.6665V3.1665H124.683V2.6665V2.1665H126.694V2.6665ZM122.672 2.6665V3.1665H121.667V2.6665V2.1665H122.672V2.6665ZM121.667 2.6665L121.873 3.12182L120.972 3.53091L120.765 3.07559L120.558 2.62028L121.46 2.21119L121.667 2.6665ZM118.962 3.89378L119.169 4.34909L117.366 5.16727L117.159 4.71196L116.952 4.25664L118.755 3.43846L118.962 3.89378ZM115.356 5.53014L115.563 5.98545L113.759 6.80364L113.553 6.34832L113.346 5.89301L115.149 5.07483L115.356 5.53014ZM111.75 7.1665L111.956 7.62182L110.153 8.44L109.947 7.98469L109.74 7.52937L111.543 6.71119L111.75 7.1665ZM108.144 8.80287L108.35 9.25818L106.547 10.0764L106.341 9.62105L106.134 9.16574L107.937 8.34755L108.144 8.80287ZM104.538 10.4392L104.744 10.8945L102.941 11.7127L102.735 11.2574L102.528 10.8021L104.331 9.98392L104.538 10.4392ZM100.932 12.0756L101.138 12.5309L99.3352 13.3491L99.1286 12.8938L98.922 12.4385L100.725 11.6203L100.932 12.0756ZM97.3256 13.712L97.5322 14.1673L95.7292 14.9855L95.5226 14.5301L95.3159 14.0748L97.119 13.2566L97.3256 13.712ZM93.7195 15.3483L93.9261 15.8036L92.1231 16.6218L91.9165 16.1665L91.7099 15.7112L93.5129 14.893L93.7195 15.3483ZM90.1135 16.9847L90.3201 17.44L88.5171 18.2582L88.3104 17.8029L88.1038 17.3476L89.9069 16.5294L90.1135 16.9847ZM86.5074 18.621L86.714 19.0764L84.911 19.8945L84.7044 19.4392L84.4978 18.9839L86.3008 18.1657L86.5074 18.621ZM82.9014 20.2574L83.108 20.7127L81.3049 21.5309L81.0983 21.0756L80.8917 20.6203L82.6947 19.8021L82.9014 20.2574ZM79.2953 21.8938L79.5019 22.3491L77.6989 23.1673L77.4923 22.712L77.2857 22.2566L79.0887 21.4385L79.2953 21.8938ZM75.6892 23.5301L75.8959 23.9855L74.0928 24.8036L73.8862 24.3483L73.6796 23.893L75.4826 23.0748L75.6892 23.5301ZM72.0832 25.1665L72.2898 25.6218L70.4868 26.44L70.2802 25.9847L70.0735 25.5294L71.8766 24.7112L72.0832 25.1665ZM68.4771 26.8029L68.6837 27.2582L66.8807 28.0764L66.6741 27.621L66.4675 27.1657L68.2705 26.3475L68.4771 26.8029ZM64.8711 28.4392L65.0777 28.8945L63.2746 29.7127L63.068 29.2574L62.8614 28.8021L64.6644 27.9839L64.8711 28.4392ZM61.265 30.0756L61.4716 30.5309L59.6686 31.3491L59.462 30.8938L59.2553 30.4385L61.0584 29.6203L61.265 30.0756ZM57.6589 31.712L57.8655 32.1673L56.0625 32.9855L55.8559 32.5301L55.6493 32.0748L57.4523 31.2566L57.6589 31.712ZM54.0529 33.3483L54.2595 33.8036L52.4565 34.6218L52.2498 34.1665L52.0432 33.7112L53.8463 32.893L54.0529 33.3483ZM50.4468 34.9847L50.6534 35.44L48.8504 36.2582L48.6438 35.8029L48.4372 35.3476L50.2402 34.5294L50.4468 34.9847ZM46.8407 36.6211L47.0473 37.0764L45.2443 37.8946L45.0377 37.4392L44.8311 36.9839L46.6341 36.1657L46.8407 36.6211ZM43.2347 38.2574L43.4413 38.7127L41.6382 39.5309L41.4316 39.0756L41.225 38.6203L43.028 37.8021L43.2347 38.2574ZM39.6286 39.8938L39.8352 40.3491L38.0322 41.1673L37.8256 40.712L37.619 40.2567L39.422 39.4385L39.6286 39.8938ZM36.0225 41.5302L36.2292 41.9855L34.4261 42.8037L34.2195 42.3483L34.0129 41.893L35.8159 41.0748L36.0225 41.5302ZM32.4165 43.1665L32.6231 43.6218L30.82 44.44L30.6134 43.9847L30.4068 43.5294L32.2099 42.7112L32.4165 43.1665ZM28.8104 44.8029L29.017 45.2582L27.214 46.0764L27.0074 45.6211L26.8008 45.1658L28.6038 44.3476L28.8104 44.8029ZM25.2043 46.4393L25.4109 46.8946L23.6079 47.7128L23.4013 47.2574L23.1947 46.8021L24.9977 45.9839L25.2043 46.4393ZM21.5983 48.0756L21.8049 48.5309L20.0018 49.3491L19.7952 48.8938L19.5886 48.4385L21.3917 47.6203L21.5983 48.0756ZM17.9922 49.712L18.1988 50.1673L16.3958 50.9855L16.1892 50.5302L15.9825 50.0749L17.7856 49.2567L17.9922 49.712ZM14.3861 51.3484L14.5927 51.8037L12.7897 52.6219L12.5831 52.1665L12.3765 51.7112L14.1795 50.893L14.3861 51.3484ZM10.7801 52.9847L10.9867 53.44L9.18365 54.2582L8.97702 53.8029L8.77042 53.3476L10.5735 52.5294L10.7801 52.9847ZM7.17401 54.6211L7.38062 55.0764L5.57758 55.8946L5.37097 55.4393L5.16437 54.984L6.96738 54.1658L7.17401 54.6211ZM3.56793 56.2575L3.77454 56.7128L2.87311 57.1218L2.6665 56.6665L2.4599 56.2112L3.36133 55.8021L3.56793 56.2575Z" fill="#0069DB"/>
</svg>
