<svg width="115" height="23" viewBox="0 0 115 23" fill="none" xmlns="http://www.w3.org/2000/svg">
<path d="M114.061 12.1066C114.646 11.5208 114.646 10.571 114.061 9.98525L104.515 0.439306C103.929 -0.146481 102.979 -0.146481 102.393 0.439306C101.808 1.02509 101.808 1.97484 102.393 2.56063L110.879 11.0459L102.393 19.5312C101.808 20.117 101.808 21.0667 102.393 21.6525C102.979 22.2383 103.929 22.2383 104.515 21.6525L114.061 12.1066ZM1.00893 12.5459C1.83736 12.5459 2.50893 11.8743 2.50893 11.0459C2.50893 10.2175 1.83736 9.5459 1.00893 9.5459L1.00893 11.0459L1.00893 12.5459ZM7.0625 9.5459C6.23407 9.5459 5.5625 10.2175 5.5625 11.0459C5.5625 11.8743 6.23407 12.5459 7.0625 12.5459L7.0625 11.0459L7.0625 9.5459ZM9.08036 12.5459C9.90878 12.5459 10.5804 11.8743 10.5804 11.0459C10.5804 10.2175 9.90878 9.5459 9.08036 9.5459L9.08036 11.0459L9.08036 12.5459ZM15.1339 9.5459C14.3055 9.5459 13.6339 10.2175 13.6339 11.0459C13.6339 11.8743 14.3055 12.5459 15.1339 12.5459L15.1339 11.0459L15.1339 9.5459ZM17.1518 12.5459C17.9802 12.5459 18.6518 11.8743 18.6518 11.0459C18.6518 10.2175 17.9802 9.5459 17.1518 9.5459L17.1518 11.0459L17.1518 12.5459ZM23.2054 9.5459C22.3769 9.5459 21.7054 10.2175 21.7054 11.0459C21.7054 11.8743 22.3769 12.5459 23.2054 12.5459L23.2054 11.0459L23.2054 9.5459ZM25.2232 12.5459C26.0516 12.5459 26.7232 11.8743 26.7232 11.0459C26.7232 10.2175 26.0516 9.5459 25.2232 9.5459L25.2232 11.0459L25.2232 12.5459ZM31.2768 9.5459C30.4484 9.5459 29.7768 10.2175 29.7768 11.0459C29.7768 11.8743 30.4484 12.5459 31.2768 12.5459L31.2768 11.0459L31.2768 9.5459ZM33.2946 12.5459C34.1231 12.5459 34.7946 11.8743 34.7946 11.0459C34.7946 10.2175 34.1231 9.5459 33.2946 9.5459L33.2946 11.0459L33.2946 12.5459ZM39.3482 9.5459C38.5198 9.5459 37.8482 10.2175 37.8482 11.0459C37.8482 11.8743 38.5198 12.5459 39.3482 12.5459L39.3482 11.0459L39.3482 9.5459ZM41.3661 12.5459C42.1945 12.5459 42.8661 11.8743 42.8661 11.0459C42.8661 10.2175 42.1945 9.5459 41.3661 9.5459L41.3661 11.0459L41.3661 12.5459ZM47.4196 9.5459C46.5912 9.5459 45.9196 10.2175 45.9196 11.0459C45.9196 11.8743 46.5912 12.5459 47.4196 12.5459L47.4196 11.0459L47.4196 9.5459ZM49.4375 12.5459C50.2659 12.5459 50.9375 11.8743 50.9375 11.0459C50.9375 10.2175 50.2659 9.5459 49.4375 9.5459L49.4375 11.0459L49.4375 12.5459ZM55.4911 9.5459C54.6626 9.5459 53.9911 10.2175 53.9911 11.0459C53.9911 11.8743 54.6626 12.5459 55.4911 12.5459L55.4911 11.0459L55.4911 9.5459ZM57.5089 12.5459C58.3374 12.5459 59.0089 11.8743 59.0089 11.0459C59.0089 10.2175 58.3374 9.5459 57.5089 9.5459L57.5089 11.0459L57.5089 12.5459ZM63.5625 9.5459C62.7341 9.5459 62.0625 10.2175 62.0625 11.0459C62.0625 11.8743 62.7341 12.5459 63.5625 12.5459L63.5625 11.0459L63.5625 9.5459ZM65.5804 12.5459C66.4088 12.5459 67.0804 11.8743 67.0804 11.0459C67.0804 10.2175 66.4088 9.5459 65.5804 9.5459L65.5804 11.0459L65.5804 12.5459ZM71.6339 9.5459C70.8055 9.5459 70.1339 10.2175 70.1339 11.0459C70.1339 11.8743 70.8055 12.5459 71.6339 12.5459L71.6339 11.0459L71.6339 9.5459ZM73.6518 12.5459C74.4802 12.5459 75.1518 11.8743 75.1518 11.0459C75.1518 10.2175 74.4802 9.5459 73.6518 9.5459L73.6518 11.0459L73.6518 12.5459ZM79.7054 9.54591C78.8769 9.54591 78.2054 10.2175 78.2054 11.0459C78.2054 11.8743 78.8769 12.5459 79.7054 12.5459L79.7054 11.0459L79.7054 9.54591ZM81.7232 12.5459C82.5516 12.5459 83.2232 11.8743 83.2232 11.0459C83.2232 10.2175 82.5516 9.54591 81.7232 9.54591L81.7232 11.0459L81.7232 12.5459ZM87.7768 9.54591C86.9484 9.54591 86.2768 10.2175 86.2768 11.0459C86.2768 11.8743 86.9484 12.5459 87.7768 12.5459L87.7768 11.0459L87.7768 9.54591ZM89.7947 12.5459C90.6231 12.5459 91.2947 11.8743 91.2947 11.0459C91.2947 10.2175 90.6231 9.54591 89.7947 9.54591L89.7947 11.0459L89.7947 12.5459ZM95.8482 9.54591C95.0198 9.54591 94.3482 10.2175 94.3482 11.0459C94.3482 11.8743 95.0198 12.5459 95.8482 12.5459L95.8482 11.0459L95.8482 9.54591ZM97.8661 12.5459C98.6945 12.5459 99.3661 11.8743 99.3661 11.0459C99.3661 10.2175 98.6945 9.54591 97.8661 9.54591L97.8661 11.0459L97.8661 12.5459ZM103.92 9.54591C103.091 9.54591 102.42 10.2175 102.42 11.0459C102.42 11.8743 103.091 12.5459 103.92 12.5459L103.92 11.0459L103.92 9.54591ZM105.938 12.5459C106.766 12.5459 107.438 11.8743 107.438 11.0459C107.438 10.2175 106.766 9.54591 105.938 9.54591L105.938 11.0459L105.938 12.5459ZM111.991 9.54591C111.163 9.54591 110.491 10.2175 110.491 11.0459C110.491 11.8743 111.163 12.5459 111.991 12.5459L111.991 11.0459L111.991 9.54591ZM0 11.0459L-1.31134e-07 12.5459L1.00893 12.5459L1.00893 11.0459L1.00893 9.5459L1.31134e-07 9.5459L0 11.0459ZM7.0625 11.0459L7.0625 12.5459L9.08036 12.5459L9.08036 11.0459L9.08036 9.5459L7.0625 9.5459L7.0625 11.0459ZM15.1339 11.0459L15.1339 12.5459L17.1518 12.5459L17.1518 11.0459L17.1518 9.5459L15.1339 9.5459L15.1339 11.0459ZM23.2054 11.0459L23.2054 12.5459L25.2232 12.5459L25.2232 11.0459L25.2232 9.5459L23.2054 9.5459L23.2054 11.0459ZM31.2768 11.0459L31.2768 12.5459L33.2946 12.5459L33.2946 11.0459L33.2946 9.5459L31.2768 9.5459L31.2768 11.0459ZM39.3482 11.0459L39.3482 12.5459L41.3661 12.5459L41.3661 11.0459L41.3661 9.5459L39.3482 9.5459L39.3482 11.0459ZM47.4196 11.0459L47.4196 12.5459L49.4375 12.5459L49.4375 11.0459L49.4375 9.5459L47.4196 9.5459L47.4196 11.0459ZM55.4911 11.0459L55.4911 12.5459L57.5089 12.5459L57.5089 11.0459L57.5089 9.5459L55.4911 9.5459L55.4911 11.0459ZM63.5625 11.0459L63.5625 12.5459L65.5804 12.5459L65.5804 11.0459L65.5804 9.5459L63.5625 9.5459L63.5625 11.0459ZM71.6339 11.0459L71.6339 12.5459L73.6518 12.5459L73.6518 11.0459L73.6518 9.5459L71.6339 9.5459L71.6339 11.0459ZM79.7054 11.0459L79.7054 12.5459L81.7232 12.5459L81.7232 11.0459L81.7232 9.54591L79.7054 9.54591L79.7054 11.0459ZM87.7768 11.0459L87.7768 12.5459L89.7947 12.5459L89.7947 11.0459L89.7947 9.54591L87.7768 9.54591L87.7768 11.0459ZM95.8482 11.0459L95.8482 12.5459L97.8661 12.5459L97.8661 11.0459L97.8661 9.54591L95.8482 9.54591L95.8482 11.0459ZM103.92 11.0459L103.92 12.5459L105.938 12.5459L105.938 11.0459L105.938 9.54591L103.92 9.54591L103.92 11.0459ZM111.991 11.0459L111.991 12.5459L113 12.5459L113 11.0459L113 9.54591L111.991 9.54591L111.991 11.0459ZM114.061 12.1066C114.646 11.5208 114.646 10.571 114.061 9.98525L104.515 0.439306C103.929 -0.146481 102.979 -0.146481 102.393 0.439306C101.808 1.02509 101.808 1.97484 102.393 2.56063L110.879 11.0459L102.393 19.5312C101.808 20.117 101.808 21.0667 102.393 21.6525C102.979 22.2383 103.929 22.2383 104.515 21.6525L114.061 12.1066ZM1.00893 12.5459C1.83736 12.5459 2.50893 11.8743 2.50893 11.0459C2.50893 10.2175 1.83736 9.5459 1.00893 9.5459L1.00893 11.0459L1.00893 12.5459ZM7.0625 9.5459C6.23407 9.5459 5.5625 10.2175 5.5625 11.0459C5.5625 11.8743 6.23407 12.5459 7.0625 12.5459L7.0625 11.0459L7.0625 9.5459ZM9.08036 12.5459C9.90878 12.5459 10.5804 11.8743 10.5804 11.0459C10.5804 10.2175 9.90878 9.5459 9.08036 9.5459L9.08036 11.0459L9.08036 12.5459ZM15.1339 9.5459C14.3055 9.5459 13.6339 10.2175 13.6339 11.0459C13.6339 11.8743 14.3055 12.5459 15.1339 12.5459L15.1339 11.0459L15.1339 9.5459ZM17.1518 12.5459C17.9802 12.5459 18.6518 11.8743 18.6518 11.0459C18.6518 10.2175 17.9802 9.5459 17.1518 9.5459L17.1518 11.0459L17.1518 12.5459ZM23.2054 9.5459C22.3769 9.5459 21.7054 10.2175 21.7054 11.0459C21.7054 11.8743 22.3769 12.5459 23.2054 12.5459L23.2054 11.0459L23.2054 9.5459ZM25.2232 12.5459C26.0516 12.5459 26.7232 11.8743 26.7232 11.0459C26.7232 10.2175 26.0516 9.5459 25.2232 9.5459L25.2232 11.0459L25.2232 12.5459ZM31.2768 9.5459C30.4484 9.5459 29.7768 10.2175 29.7768 11.0459C29.7768 11.8743 30.4484 12.5459 31.2768 12.5459L31.2768 11.0459L31.2768 9.5459ZM33.2946 12.5459C34.1231 12.5459 34.7946 11.8743 34.7946 11.0459C34.7946 10.2175 34.1231 9.5459 33.2946 9.5459L33.2946 11.0459L33.2946 12.5459ZM39.3482 9.5459C38.5198 9.5459 37.8482 10.2175 37.8482 11.0459C37.8482 11.8743 38.5198 12.5459 39.3482 12.5459L39.3482 11.0459L39.3482 9.5459ZM41.3661 12.5459C42.1945 12.5459 42.8661 11.8743 42.8661 11.0459C42.8661 10.2175 42.1945 9.5459 41.3661 9.5459L41.3661 11.0459L41.3661 12.5459ZM47.4196 9.5459C46.5912 9.5459 45.9196 10.2175 45.9196 11.0459C45.9196 11.8743 46.5912 12.5459 47.4196 12.5459L47.4196 11.0459L47.4196 9.5459ZM49.4375 12.5459C50.2659 12.5459 50.9375 11.8743 50.9375 11.0459C50.9375 10.2175 50.2659 9.5459 49.4375 9.5459L49.4375 11.0459L49.4375 12.5459ZM55.4911 9.5459C54.6626 9.5459 53.9911 10.2175 53.9911 11.0459C53.9911 11.8743 54.6626 12.5459 55.4911 12.5459L55.4911 11.0459L55.4911 9.5459ZM57.5089 12.5459C58.3374 12.5459 59.0089 11.8743 59.0089 11.0459C59.0089 10.2175 58.3374 9.5459 57.5089 9.5459L57.5089 11.0459L57.5089 12.5459ZM63.5625 9.5459C62.7341 9.5459 62.0625 10.2175 62.0625 11.0459C62.0625 11.8743 62.7341 12.5459 63.5625 12.5459L63.5625 11.0459L63.5625 9.5459ZM65.5804 12.5459C66.4088 12.5459 67.0804 11.8743 67.0804 11.0459C67.0804 10.2175 66.4088 9.5459 65.5804 9.5459L65.5804 11.0459L65.5804 12.5459ZM71.6339 9.5459C70.8055 9.5459 70.1339 10.2175 70.1339 11.0459C70.1339 11.8743 70.8055 12.5459 71.6339 12.5459L71.6339 11.0459L71.6339 9.5459ZM73.6518 12.5459C74.4802 12.5459 75.1518 11.8743 75.1518 11.0459C75.1518 10.2175 74.4802 9.5459 73.6518 9.5459L73.6518 11.0459L73.6518 12.5459ZM79.7054 9.54591C78.8769 9.54591 78.2054 10.2175 78.2054 11.0459C78.2054 11.8743 78.8769 12.5459 79.7054 12.5459L79.7054 11.0459L79.7054 9.54591ZM81.7232 12.5459C82.5516 12.5459 83.2232 11.8743 83.2232 11.0459C83.2232 10.2175 82.5516 9.54591 81.7232 9.54591L81.7232 11.0459L81.7232 12.5459ZM87.7768 9.54591C86.9484 9.54591 86.2768 10.2175 86.2768 11.0459C86.2768 11.8743 86.9484 12.5459 87.7768 12.5459L87.7768 11.0459L87.7768 9.54591ZM89.7947 12.5459C90.6231 12.5459 91.2947 11.8743 91.2947 11.0459C91.2947 10.2175 90.6231 9.54591 89.7947 9.54591L89.7947 11.0459L89.7947 12.5459ZM95.8482 9.54591C95.0198 9.54591 94.3482 10.2175 94.3482 11.0459C94.3482 11.8743 95.0198 12.5459 95.8482 12.5459L95.8482 11.0459L95.8482 9.54591ZM97.8661 12.5459C98.6945 12.5459 99.3661 11.8743 99.3661 11.0459C99.3661 10.2175 98.6945 9.54591 97.8661 9.54591L97.8661 11.0459L97.8661 12.5459ZM103.92 9.54591C103.091 9.54591 102.42 10.2175 102.42 11.0459C102.42 11.8743 103.091 12.5459 103.92 12.5459L103.92 11.0459L103.92 9.54591ZM105.938 12.5459C106.766 12.5459 107.438 11.8743 107.438 11.0459C107.438 10.2175 106.766 9.54591 105.938 9.54591L105.938 11.0459L105.938 12.5459ZM111.991 9.54591C111.163 9.54591 110.491 10.2175 110.491 11.0459C110.491 11.8743 111.163 12.5459 111.991 12.5459L111.991 11.0459L111.991 9.54591ZM0 11.0459L-1.31134e-07 12.5459L1.00893 12.5459L1.00893 11.0459L1.00893 9.5459L1.31134e-07 9.5459L0 11.0459ZM7.0625 11.0459L7.0625 12.5459L9.08036 12.5459L9.08036 11.0459L9.08036 9.5459L7.0625 9.5459L7.0625 11.0459ZM15.1339 11.0459L15.1339 12.5459L17.1518 12.5459L17.1518 11.0459L17.1518 9.5459L15.1339 9.5459L15.1339 11.0459ZM23.2054 11.0459L23.2054 12.5459L25.2232 12.5459L25.2232 11.0459L25.2232 9.5459L23.2054 9.5459L23.2054 11.0459ZM31.2768 11.0459L31.2768 12.5459L33.2946 12.5459L33.2946 11.0459L33.2946 9.5459L31.2768 9.5459L31.2768 11.0459ZM39.3482 11.0459L39.3482 12.5459L41.3661 12.5459L41.3661 11.0459L41.3661 9.5459L39.3482 9.5459L39.3482 11.0459ZM47.4196 11.0459L47.4196 12.5459L49.4375 12.5459L49.4375 11.0459L49.4375 9.5459L47.4196 9.5459L47.4196 11.0459ZM55.4911 11.0459L55.4911 12.5459L57.5089 12.5459L57.5089 11.0459L57.5089 9.5459L55.4911 9.5459L55.4911 11.0459ZM63.5625 11.0459L63.5625 12.5459L65.5804 12.5459L65.5804 11.0459L65.5804 9.5459L63.5625 9.5459L63.5625 11.0459ZM71.6339 11.0459L71.6339 12.5459L73.6518 12.5459L73.6518 11.0459L73.6518 9.5459L71.6339 9.5459L71.6339 11.0459ZM79.7054 11.0459L79.7054 12.5459L81.7232 12.5459L81.7232 11.0459L81.7232 9.54591L79.7054 9.54591L79.7054 11.0459ZM87.7768 11.0459L87.7768 12.5459L89.7947 12.5459L89.7947 11.0459L89.7947 9.54591L87.7768 9.54591L87.7768 11.0459ZM95.8482 11.0459L95.8482 12.5459L97.8661 12.5459L97.8661 11.0459L97.8661 9.54591L95.8482 9.54591L95.8482 11.0459ZM103.92 11.0459L103.92 12.5459L105.938 12.5459L105.938 11.0459L105.938 9.54591L103.92 9.54591L103.92 11.0459ZM111.991 11.0459L111.991 12.5459L113 12.5459L113 11.0459L113 9.54591L111.991 9.54591L111.991 11.0459Z" fill="#0C5182"/>
</svg>
