<svg width="23" height="49" viewBox="0 0 23 49" fill="none" xmlns="http://www.w3.org/2000/svg">
<path d="M9.98524 48.0607C10.571 48.6464 11.5208 48.6464 12.1066 48.0607L21.6525 38.5147C22.2383 37.9289 22.2383 36.9792 21.6525 36.3934C21.0667 35.8076 20.117 35.8076 19.5312 36.3934L11.0459 44.8787L2.56062 36.3934C1.97483 35.8076 1.02509 35.8076 0.439298 36.3934C-0.146488 36.9792 -0.146488 37.9289 0.439298 38.5147L9.98524 48.0607ZM9.5459 0.979167C9.5459 1.80759 10.2175 2.47917 11.0459 2.47917C11.8743 2.47917 12.5459 1.80759 12.5459 0.979167L11.0459 0.979167L9.5459 0.979167ZM12.5459 6.85417C12.5459 6.02574 11.8743 5.35417 11.0459 5.35417C10.2175 5.35417 9.5459 6.02574 9.5459 6.85417L11.0459 6.85417L12.5459 6.85417ZM9.5459 8.8125C9.5459 9.64093 10.2175 10.3125 11.0459 10.3125C11.8743 10.3125 12.5459 9.64093 12.5459 8.8125L11.0459 8.8125L9.5459 8.8125ZM12.5459 14.6875C12.5459 13.8591 11.8743 13.1875 11.0459 13.1875C10.2175 13.1875 9.5459 13.8591 9.5459 14.6875L11.0459 14.6875L12.5459 14.6875ZM9.5459 16.6458C9.5459 17.4743 10.2175 18.1458 11.0459 18.1458C11.8743 18.1458 12.5459 17.4743 12.5459 16.6458L11.0459 16.6458L9.5459 16.6458ZM12.5459 22.5208C12.5459 21.6924 11.8743 21.0208 11.0459 21.0208C10.2175 21.0208 9.5459 21.6924 9.5459 22.5208L11.0459 22.5208L12.5459 22.5208ZM9.5459 24.4792C9.5459 25.3076 10.2175 25.9792 11.0459 25.9792C11.8743 25.9792 12.5459 25.3076 12.5459 24.4792L11.0459 24.4792L9.5459 24.4792ZM12.5459 30.3542C12.5459 29.5257 11.8743 28.8542 11.0459 28.8542C10.2175 28.8542 9.5459 29.5257 9.5459 30.3542L11.0459 30.3542L12.5459 30.3542ZM9.5459 32.3125C9.5459 33.1409 10.2175 33.8125 11.0459 33.8125C11.8743 33.8125 12.5459 33.1409 12.5459 32.3125L11.0459 32.3125L9.5459 32.3125ZM12.5459 38.1875C12.5459 37.3591 11.8743 36.6875 11.0459 36.6875C10.2175 36.6875 9.5459 37.3591 9.5459 38.1875L11.0459 38.1875L12.5459 38.1875ZM9.5459 40.1458C9.5459 40.9743 10.2175 41.6458 11.0459 41.6458C11.8743 41.6458 12.5459 40.9743 12.5459 40.1458L11.0459 40.1458L9.5459 40.1458ZM12.5459 46.0208C12.5459 45.1924 11.8743 44.5208 11.0459 44.5208C10.2175 44.5208 9.5459 45.1924 9.5459 46.0208L11.0459 46.0208L12.5459 46.0208ZM11.0459 0L9.5459 6.55671e-08L9.5459 0.979167L11.0459 0.979167L12.5459 0.979167L12.5459 -6.55671e-08L11.0459 0ZM11.0459 6.85417L9.5459 6.85417L9.5459 8.8125L11.0459 8.8125L12.5459 8.8125L12.5459 6.85417L11.0459 6.85417ZM11.0459 14.6875L9.5459 14.6875L9.5459 16.6458L11.0459 16.6458L12.5459 16.6458L12.5459 14.6875L11.0459 14.6875ZM11.0459 22.5208L9.5459 22.5208L9.5459 24.4792L11.0459 24.4792L12.5459 24.4792L12.5459 22.5208L11.0459 22.5208ZM11.0459 30.3542L9.5459 30.3542L9.5459 32.3125L11.0459 32.3125L12.5459 32.3125L12.5459 30.3542L11.0459 30.3542ZM11.0459 38.1875L9.5459 38.1875L9.5459 40.1458L11.0459 40.1458L12.5459 40.1458L12.5459 38.1875L11.0459 38.1875ZM11.0459 46.0208L9.5459 46.0208L9.5459 47L11.0459 47L12.5459 47L12.5459 46.0208L11.0459 46.0208ZM9.98524 48.0607C10.571 48.6464 11.5208 48.6464 12.1066 48.0607L21.6525 38.5147C22.2383 37.9289 22.2383 36.9792 21.6525 36.3934C21.0667 35.8076 20.117 35.8076 19.5312 36.3934L11.0459 44.8787L2.56062 36.3934C1.97483 35.8076 1.02509 35.8076 0.439298 36.3934C-0.146488 36.9792 -0.146488 37.9289 0.439298 38.5147L9.98524 48.0607ZM9.5459 0.979167C9.5459 1.80759 10.2175 2.47917 11.0459 2.47917C11.8743 2.47917 12.5459 1.80759 12.5459 0.979167L11.0459 0.979167L9.5459 0.979167ZM12.5459 6.85417C12.5459 6.02574 11.8743 5.35417 11.0459 5.35417C10.2175 5.35417 9.5459 6.02574 9.5459 6.85417L11.0459 6.85417L12.5459 6.85417ZM9.5459 8.8125C9.5459 9.64093 10.2175 10.3125 11.0459 10.3125C11.8743 10.3125 12.5459 9.64093 12.5459 8.8125L11.0459 8.8125L9.5459 8.8125ZM12.5459 14.6875C12.5459 13.8591 11.8743 13.1875 11.0459 13.1875C10.2175 13.1875 9.5459 13.8591 9.5459 14.6875L11.0459 14.6875L12.5459 14.6875ZM9.5459 16.6458C9.5459 17.4743 10.2175 18.1458 11.0459 18.1458C11.8743 18.1458 12.5459 17.4743 12.5459 16.6458L11.0459 16.6458L9.5459 16.6458ZM12.5459 22.5208C12.5459 21.6924 11.8743 21.0208 11.0459 21.0208C10.2175 21.0208 9.5459 21.6924 9.5459 22.5208L11.0459 22.5208L12.5459 22.5208ZM9.5459 24.4792C9.5459 25.3076 10.2175 25.9792 11.0459 25.9792C11.8743 25.9792 12.5459 25.3076 12.5459 24.4792L11.0459 24.4792L9.5459 24.4792ZM12.5459 30.3542C12.5459 29.5257 11.8743 28.8542 11.0459 28.8542C10.2175 28.8542 9.5459 29.5257 9.5459 30.3542L11.0459 30.3542L12.5459 30.3542ZM9.5459 32.3125C9.5459 33.1409 10.2175 33.8125 11.0459 33.8125C11.8743 33.8125 12.5459 33.1409 12.5459 32.3125L11.0459 32.3125L9.5459 32.3125ZM12.5459 38.1875C12.5459 37.3591 11.8743 36.6875 11.0459 36.6875C10.2175 36.6875 9.5459 37.3591 9.5459 38.1875L11.0459 38.1875L12.5459 38.1875ZM9.5459 40.1458C9.5459 40.9743 10.2175 41.6458 11.0459 41.6458C11.8743 41.6458 12.5459 40.9743 12.5459 40.1458L11.0459 40.1458L9.5459 40.1458ZM12.5459 46.0208C12.5459 45.1924 11.8743 44.5208 11.0459 44.5208C10.2175 44.5208 9.5459 45.1924 9.5459 46.0208L11.0459 46.0208L12.5459 46.0208ZM11.0459 0L9.5459 6.55671e-08L9.5459 0.979167L11.0459 0.979167L12.5459 0.979167L12.5459 -6.55671e-08L11.0459 0ZM11.0459 6.85417L9.5459 6.85417L9.5459 8.8125L11.0459 8.8125L12.5459 8.8125L12.5459 6.85417L11.0459 6.85417ZM11.0459 14.6875L9.5459 14.6875L9.5459 16.6458L11.0459 16.6458L12.5459 16.6458L12.5459 14.6875L11.0459 14.6875ZM11.0459 22.5208L9.5459 22.5208L9.5459 24.4792L11.0459 24.4792L12.5459 24.4792L12.5459 22.5208L11.0459 22.5208ZM11.0459 30.3542L9.5459 30.3542L9.5459 32.3125L11.0459 32.3125L12.5459 32.3125L12.5459 30.3542L11.0459 30.3542ZM11.0459 38.1875L9.5459 38.1875L9.5459 40.1458L11.0459 40.1458L12.5459 40.1458L12.5459 38.1875L11.0459 38.1875ZM11.0459 46.0208L9.5459 46.0208L9.5459 47L11.0459 47L12.5459 47L12.5459 46.0208L11.0459 46.0208Z" fill="#0C5182"/>
</svg>
