<svg width="23" height="37" viewBox="0 0 23 37" fill="none" xmlns="http://www.w3.org/2000/svg">
<path d="M9.98524 36.0607C10.571 36.6464 11.5208 36.6464 12.1066 36.0607L21.6525 26.5147C22.2383 25.9289 22.2383 24.9792 21.6525 24.3934C21.0667 23.8076 20.117 23.8076 19.5312 24.3934L11.0459 32.8787L2.56062 24.3934C1.97483 23.8076 1.02508 23.8076 0.439296 24.3934C-0.146491 24.9792 -0.146491 25.9289 0.439296 26.5147L9.98524 36.0607ZM9.5459 1.09375C9.5459 1.92218 10.2175 2.59375 11.0459 2.59375C11.8743 2.59375 12.5459 1.92218 12.5459 1.09375L11.0459 1.09375L9.5459 1.09375ZM12.5459 7.65625C12.5459 6.82782 11.8743 6.15625 11.0459 6.15625C10.2175 6.15625 9.5459 6.82782 9.5459 7.65625L11.0459 7.65625L12.5459 7.65625ZM9.5459 9.84375C9.5459 10.6722 10.2175 11.3437 11.0459 11.3438C11.8743 11.3438 12.5459 10.6722 12.5459 9.84375L11.0459 9.84375L9.5459 9.84375ZM12.5459 16.4063C12.5459 15.5778 11.8743 14.9063 11.0459 14.9062C10.2175 14.9062 9.5459 15.5778 9.5459 16.4062L11.0459 16.4062L12.5459 16.4063ZM9.5459 18.5937C9.5459 19.4222 10.2175 20.0937 11.0459 20.0938C11.8743 20.0938 12.5459 19.4222 12.5459 18.5938L11.0459 18.5938L9.5459 18.5937ZM12.5459 25.1563C12.5459 24.3278 11.8743 23.6563 11.0459 23.6562C10.2175 23.6562 9.5459 24.3278 9.5459 25.1562L11.0459 25.1562L12.5459 25.1563ZM9.5459 27.3437C9.5459 28.1722 10.2175 28.8437 11.0459 28.8438C11.8743 28.8438 12.5459 28.1722 12.5459 27.3438L11.0459 27.3438L9.5459 27.3437ZM12.5459 33.9063C12.5459 33.0778 11.8743 32.4063 11.0459 32.4062C10.2175 32.4062 9.5459 33.0778 9.5459 33.9062L11.0459 33.9062L12.5459 33.9063ZM11.0459 0L9.5459 -6.55671e-08L9.5459 1.09375L11.0459 1.09375L12.5459 1.09375L12.5459 6.55671e-08L11.0459 0ZM11.0459 7.65625L9.5459 7.65625L9.5459 9.84375L11.0459 9.84375L12.5459 9.84375L12.5459 7.65625L11.0459 7.65625ZM11.0459 16.4062L9.5459 16.4062L9.5459 18.5937L11.0459 18.5938L12.5459 18.5938L12.5459 16.4063L11.0459 16.4062ZM11.0459 25.1562L9.5459 25.1562L9.5459 27.3437L11.0459 27.3438L12.5459 27.3438L12.5459 25.1563L11.0459 25.1562ZM11.0459 33.9062L9.5459 33.9062L9.5459 35L11.0459 35L12.5459 35L12.5459 33.9063L11.0459 33.9062ZM9.98524 36.0607C10.571 36.6464 11.5208 36.6464 12.1066 36.0607L21.6525 26.5147C22.2383 25.9289 22.2383 24.9792 21.6525 24.3934C21.0667 23.8076 20.117 23.8076 19.5312 24.3934L11.0459 32.8787L2.56062 24.3934C1.97483 23.8076 1.02508 23.8076 0.439296 24.3934C-0.146491 24.9792 -0.146491 25.9289 0.439296 26.5147L9.98524 36.0607ZM9.5459 1.09375C9.5459 1.92218 10.2175 2.59375 11.0459 2.59375C11.8743 2.59375 12.5459 1.92218 12.5459 1.09375L11.0459 1.09375L9.5459 1.09375ZM12.5459 7.65625C12.5459 6.82782 11.8743 6.15625 11.0459 6.15625C10.2175 6.15625 9.5459 6.82782 9.5459 7.65625L11.0459 7.65625L12.5459 7.65625ZM9.5459 9.84375C9.5459 10.6722 10.2175 11.3437 11.0459 11.3438C11.8743 11.3438 12.5459 10.6722 12.5459 9.84375L11.0459 9.84375L9.5459 9.84375ZM12.5459 16.4063C12.5459 15.5778 11.8743 14.9063 11.0459 14.9062C10.2175 14.9062 9.5459 15.5778 9.5459 16.4062L11.0459 16.4062L12.5459 16.4063ZM9.5459 18.5937C9.5459 19.4222 10.2175 20.0937 11.0459 20.0938C11.8743 20.0938 12.5459 19.4222 12.5459 18.5938L11.0459 18.5938L9.5459 18.5937ZM12.5459 25.1563C12.5459 24.3278 11.8743 23.6563 11.0459 23.6562C10.2175 23.6562 9.5459 24.3278 9.5459 25.1562L11.0459 25.1562L12.5459 25.1563ZM9.5459 27.3437C9.5459 28.1722 10.2175 28.8437 11.0459 28.8438C11.8743 28.8438 12.5459 28.1722 12.5459 27.3438L11.0459 27.3438L9.5459 27.3437ZM12.5459 33.9063C12.5459 33.0778 11.8743 32.4063 11.0459 32.4062C10.2175 32.4062 9.5459 33.0778 9.5459 33.9062L11.0459 33.9062L12.5459 33.9063ZM11.0459 0L9.5459 -6.55671e-08L9.5459 1.09375L11.0459 1.09375L12.5459 1.09375L12.5459 6.55671e-08L11.0459 0ZM11.0459 7.65625L9.5459 7.65625L9.5459 9.84375L11.0459 9.84375L12.5459 9.84375L12.5459 7.65625L11.0459 7.65625ZM11.0459 16.4062L9.5459 16.4062L9.5459 18.5937L11.0459 18.5938L12.5459 18.5938L12.5459 16.4063L11.0459 16.4062ZM11.0459 25.1562L9.5459 25.1562L9.5459 27.3437L11.0459 27.3438L12.5459 27.3438L12.5459 25.1563L11.0459 25.1562ZM11.0459 33.9062L9.5459 33.9062L9.5459 35L11.0459 35L12.5459 35L12.5459 33.9063L11.0459 33.9062Z" fill="#A3BDD0"/>
</svg>
