<svg width="174" height="38" viewBox="0 0 174 38" fill="none" xmlns="http://www.w3.org/2000/svg">
<path d="M15.6359 33.3447C11.1873 33.3447 7.79165 32.1076 5.44889 29.6332C3.13245 27.1588 1.97424 23.6447 1.97424 19.0908C1.97424 16.827 2.3296 14.8133 3.04032 13.0496C3.75105 11.2596 4.725 9.75921 5.96219 8.54834C7.19938 7.31116 8.67348 6.37668 10.3845 5.74493C12.0955 5.11317 13.9513 4.79729 15.9518 4.79729C17.11 4.79729 18.163 4.88943 19.1106 5.07369C20.0582 5.23163 20.8874 5.42905 21.5981 5.66596C22.3089 5.87654 22.9011 6.10029 23.375 6.3372C23.8488 6.57411 24.191 6.75837 24.4016 6.88999L22.6247 11.8651C21.7824 11.4176 20.7953 11.0359 19.6634 10.72C18.5578 10.4041 17.2943 10.2462 15.8729 10.2462C14.9252 10.2462 13.9908 10.4041 13.0694 10.72C12.1745 11.0359 11.3716 11.5492 10.6609 12.2599C9.97647 12.9443 9.42369 13.8393 9.00252 14.9449C8.58135 16.0504 8.37076 17.3929 8.37076 18.9723C8.37076 20.2358 8.50238 21.4204 8.76561 22.5259C9.05516 23.6052 9.50266 24.5397 10.1081 25.3293C10.7398 26.119 11.5559 26.7508 12.5561 27.2246C13.5564 27.6721 14.7673 27.8959 16.1887 27.8959C17.0837 27.8959 17.8866 27.8432 18.5973 27.7379C19.308 27.6326 19.9398 27.5142 20.4926 27.3826C21.0454 27.2246 21.5323 27.0535 21.9535 26.8693C22.3747 26.685 22.7564 26.5139 23.0986 26.356L24.7964 31.2915C23.9277 31.818 22.7037 32.2918 21.1243 32.713C19.5449 33.1342 17.7155 33.3447 15.6359 33.3447ZM44.2637 12.023V32.792H38.341C38.341 31.4758 38.3541 30.1728 38.3805 28.883C38.4068 27.5668 38.4331 26.356 38.4594 25.2504C38.4858 24.1448 38.5121 23.184 38.5384 22.368C38.591 21.5257 38.6174 20.9071 38.6174 20.5122C37.854 21.5915 37.0906 22.6839 36.3273 23.7894C35.5639 24.895 34.8268 25.9874 34.1161 27.0667C33.4317 28.1196 32.7736 29.133 32.1419 30.107C31.5364 31.081 30.9968 31.9759 30.523 32.792H25.3505V12.023H31.2337C31.2337 13.3392 31.2206 14.6027 31.1942 15.8135C31.1942 16.9981 31.1811 18.0773 31.1548 19.0513C31.1284 20.0252 31.1021 20.8807 31.0758 21.6178C31.0495 22.3285 31.0363 22.8813 31.0363 23.2761C32.6157 20.9597 34.0635 18.8802 35.3796 17.0376C36.7221 15.1949 38.0251 13.5234 39.2886 12.023H44.2637ZM64.6669 32.792H58.7836V24.5791H52.6635V32.792H46.7803V12.023H52.6635V19.762H58.7836V12.023H64.6669V32.792ZM75.1054 28.6856C75.6845 28.6856 76.2373 28.6724 76.7638 28.6461C77.2902 28.6197 77.7114 28.5803 78.0273 28.5276V24.0658C77.7904 24.0132 77.435 23.9605 76.9612 23.9079C76.4874 23.8553 76.053 23.8289 75.6582 23.8289C75.1054 23.8289 74.5789 23.8684 74.0788 23.9474C73.605 24 73.1838 24.1185 72.8153 24.3027C72.4468 24.487 72.1572 24.7371 71.9466 25.053C71.736 25.3688 71.6308 25.7637 71.6308 26.2375C71.6308 27.1588 71.9335 27.8037 72.5389 28.1722C73.1707 28.5145 74.0262 28.6856 75.1054 28.6856ZM74.6316 11.4702C76.3689 11.4702 77.8167 11.6676 78.9749 12.0625C80.1331 12.4573 81.0544 13.0233 81.7388 13.7603C82.4496 14.4974 82.9497 15.3924 83.2393 16.4453C83.5288 17.4982 83.6736 18.6696 83.6736 19.9594V32.1997C82.8313 32.384 81.6599 32.5945 80.1595 32.8314C78.659 33.0947 76.8427 33.2263 74.7106 33.2263C73.3681 33.2263 72.1441 33.1078 71.0385 32.8709C69.9592 32.634 69.0248 32.2523 68.2351 31.7259C67.4454 31.1731 66.8399 30.4624 66.4188 29.5937C65.9976 28.725 65.787 27.6589 65.787 26.3954C65.787 25.1846 66.0239 24.158 66.4977 23.3156C66.9979 22.4733 67.656 21.802 68.472 21.3019C69.288 20.8018 70.2225 20.4464 71.2754 20.2358C72.3283 19.9989 73.4207 19.8805 74.5526 19.8805C75.316 19.8805 75.9872 19.9199 76.5663 19.9989C77.1718 20.0516 77.6588 20.1305 78.0273 20.2358V19.683C78.0273 18.6828 77.7246 17.8799 77.1191 17.2745C76.5137 16.669 75.4608 16.3663 73.9604 16.3663C72.9601 16.3663 71.973 16.4453 70.999 16.6032C70.025 16.7348 69.1827 16.9323 68.472 17.1955L67.7218 12.4573C68.064 12.352 68.4851 12.2467 68.9853 12.1415C69.5117 12.0098 70.0777 11.9045 70.6831 11.8256C71.2886 11.7203 71.9203 11.6413 72.5784 11.5887C73.2628 11.5097 73.9472 11.4702 74.6316 11.4702ZM103.863 12.023V32.792H97.9801V16.9191H91.86V32.792H85.9767V12.023H103.863ZM105.378 22.4075C105.378 20.9071 105.615 19.4988 106.089 18.1826C106.589 16.8401 107.3 15.6819 108.221 14.708C109.143 13.7077 110.261 12.918 111.577 12.3389C112.894 11.7598 114.394 11.4702 116.079 11.4702C117.184 11.4702 118.198 11.5755 119.119 11.7861C120.04 11.9704 120.935 12.2467 121.804 12.6153L120.58 17.314C120.027 17.1034 119.422 16.9191 118.764 16.7612C118.106 16.6032 117.369 16.5243 116.552 16.5243C114.815 16.5243 113.512 17.0639 112.644 18.1431C111.801 19.2224 111.38 20.6438 111.38 22.4075C111.38 24.2764 111.775 25.7242 112.565 26.7508C113.381 27.7774 114.789 28.2907 116.789 28.2907C117.5 28.2907 118.263 28.2249 119.08 28.0933C119.896 27.9617 120.646 27.7511 121.33 27.4615L122.159 32.2787C121.475 32.5682 120.619 32.8183 119.593 33.0289C118.566 33.2395 117.434 33.3447 116.197 33.3447C114.302 33.3447 112.67 33.0684 111.301 32.5156C109.932 31.9365 108.8 31.1599 107.905 30.186C107.037 29.212 106.392 28.067 105.971 26.7508C105.576 25.4083 105.378 23.9605 105.378 22.4075Z" fill="#3F65E3"/>
<rect x="127.344" y="11.1279" width="45.5917" height="15.3282" rx="6.28453" stroke="#252575" stroke-width="0.704698"/>
<path d="M138.16 18.3227C138.16 19.2225 137.934 19.9219 137.483 20.421C137.034 20.92 136.398 21.1696 135.574 21.1696C134.739 21.1696 134.098 20.9226 133.649 20.4285C133.203 19.932 132.98 19.2275 132.98 18.3151C132.98 17.4027 133.204 16.702 133.653 16.213C134.104 15.724 134.747 15.4795 135.581 15.4795C136.403 15.4795 137.038 15.7278 137.487 16.2243C137.935 16.7209 138.16 17.4203 138.16 18.3227ZM133.94 18.3227C133.94 19.0032 134.078 19.5199 134.352 19.8728C134.627 20.2231 135.034 20.3983 135.574 20.3983C136.11 20.3983 136.515 20.2244 136.787 19.8766C137.062 19.5287 137.199 19.0108 137.199 18.3227C137.199 17.6446 137.063 17.1305 136.791 16.7801C136.521 16.4297 136.118 16.2546 135.581 16.2546C135.039 16.2546 134.63 16.4297 134.352 16.7801C134.078 17.1305 133.94 17.6446 133.94 18.3227ZM143.706 21.094H142.799V18.6024H140.25V21.094H139.347V15.5665H140.25V17.8274H142.799V15.5665H143.706V21.094ZM149.309 21.094H148.405V16.3415H146.833C146.634 17.9547 146.474 19.0523 146.353 19.6346C146.234 20.2168 146.066 20.6226 145.85 20.852C145.633 21.0788 145.346 21.1885 144.988 21.1809C144.804 21.1809 144.628 21.1494 144.462 21.0864V20.334C144.606 20.397 144.746 20.4285 144.882 20.4285C145.063 20.4285 145.204 20.3202 145.305 20.1034C145.409 19.8841 145.521 19.4014 145.642 18.6554C145.765 17.9093 145.911 16.8797 146.08 15.5665H149.309V21.094ZM154.201 21.094L153.649 19.559H151.536L150.995 21.094H150.043L152.111 15.5438H153.094L155.162 21.094H154.201ZM153.411 18.7801L152.893 17.2754C152.855 17.1746 152.803 17.0158 152.734 16.799C152.669 16.5822 152.624 16.4234 152.598 16.3226C152.53 16.6327 152.431 16.9717 152.3 17.3397L151.801 18.7801H153.411ZM155.891 15.5665H156.719V18.4399C156.719 18.7398 156.712 19.0435 156.697 19.351C156.682 19.656 156.67 19.8627 156.663 19.9711H156.697L159.521 15.5665H160.576V21.094H159.744V18.2433C159.744 17.8072 159.768 17.2779 159.816 16.6553H159.786L156.95 21.094H155.891V15.5665ZM158.262 15.1241C157.728 15.1241 157.336 15.0283 157.086 14.8368C156.839 14.6427 156.702 14.3201 156.674 13.8689H157.479C157.494 14.0504 157.528 14.1915 157.581 14.2924C157.637 14.3932 157.715 14.4663 157.816 14.5116C157.919 14.5545 158.075 14.5759 158.285 14.5759C158.532 14.5759 158.719 14.5217 158.848 14.4133C158.977 14.3024 159.055 14.121 159.082 13.8689H159.903C159.865 14.3024 159.713 14.62 159.445 14.8217C159.178 15.0233 158.784 15.1241 158.262 15.1241ZM166.383 21.094H165.476V18.6024H162.927V21.094H162.024V15.5665H162.927V17.8274H165.476V15.5665H166.383V21.094Z" fill="#252575"/>
</svg>
